<svg width="735" height="734" viewBox="0 0 735 734" fill="none" xmlns="http://www.w3.org/2000/svg">
<path d="M309.26 487.873C284.974 487.873 261.649 483.718 239.973 476.085C240.732 453.554 241.22 434.756 241.151 425.198C241.446 425.135 241.595 425.1 241.595 425.1C241.595 425.1 240.5 406.347 240.123 393.87C240.095 392.963 240.086 391.931 240.091 390.791C240.366 390.892 240.627 390.975 240.867 391.035C240.944 391.054 241.032 391.064 241.131 391.064C245.437 391.064 268.151 372.527 268.151 372.527C268.151 372.527 271.7 373.347 273.377 373.599C274.892 373.838 277.772 373.932 279.616 373.932C280.336 373.932 280.899 373.917 281.159 373.892C282.203 373.787 289.472 371.978 291.613 371.201C292.147 371.006 291.383 369.233 290.463 369.233C290.463 369.233 294.346 368.449 295.793 368.024C297.124 367.632 296.195 366.164 295.663 365.955C295.663 365.955 296.631 365.828 298.043 365.421C298.826 365.195 298.172 362.433 296.374 362.433C296.242 362.433 296.104 362.448 295.959 362.48C295.631 362.552 294.973 362.649 294.973 362.649C294.973 362.649 294.806 360.651 293.367 360.651C293.326 360.651 293.282 360.653 293.238 360.657C289.099 360.984 283.847 361.093 283.847 361.093C283.847 361.093 286.385 360.702 287.74 360.251C289.255 359.746 288.793 358.46 287.156 357.719C286.511 357.424 285.754 357.335 285.078 357.335C284.056 357.335 283.215 357.539 283.215 357.539C283.215 357.539 280.794 357.725 279.606 357.725C279.481 357.725 279.37 357.724 279.276 357.719C278.595 357.685 277.846 357.652 277.033 357.652C274.288 357.652 270.8 358.04 266.664 360.167C265.488 360.771 250.808 367.977 249.58 369.304C249.568 369.316 249.558 369.322 249.548 369.322C249.366 369.322 249.347 367.454 249.257 364.592C249.513 364.431 249.649 364.34 249.649 364.34C249.649 364.34 250.533 324.845 235.259 308.021C234.91 307.631 234.608 307.32 234.366 307.082C234.176 306.89 233.983 306.703 233.787 306.518L233.755 306.485H233.752C233.75 306.484 233.752 306.484 233.75 306.484C230.815 303.078 215.383 299.495 215.383 299.495L190.545 300.111C190.545 300.111 165.848 304.17 165.092 308.674C164.84 310.186 165.729 318.499 167.023 329.456L167.017 329.461C169.57 351.16 173.731 383.253 173.731 393.38C173.731 394.937 173.714 396.497 173.664 398.022C173.671 398.006 173.68 397.99 173.687 397.973C173.395 411.405 171.956 423.067 171.956 423.067C171.956 423.067 172.13 423.115 172.457 423.202C171.954 427.273 171.472 431.287 171.079 435.523C127.926 397.316 100.727 341.507 100.727 279.339C100.727 164.169 194.09 70.8047 309.26 70.8047C341.793 70.8047 372.594 78.2583 400.033 91.5449C393.676 91.1504 387.151 90.9538 380.455 90.9538C376.852 90.9538 373.295 91.0139 369.778 91.1342C366.185 91.0139 362.537 90.9538 358.843 90.9538C307.056 90.9538 264.094 103.369 231.151 127.855C196.767 153.411 179.024 187.541 178.417 229.299L178.174 246.116H285.32H306.933V229.54C306.933 214.264 312.648 202.931 324.924 193.867C336.232 185.515 351.2 180.616 369.518 179.252C387.762 180.654 401.834 185.792 411.433 194.571C422.568 204.772 427.98 218.921 427.98 237.829C427.98 257.708 418.784 276.215 399.874 294.394L347.947 339.688L347.596 340.002C325.184 360.701 310.576 379.439 302.936 397.294C295.372 414.974 291.417 437.751 290.842 466.926L290.507 483.831H350.324C337.045 486.483 323.32 487.873 309.26 487.873M419.739 456.236C421.477 432.285 429.103 414.148 442.911 401.011L480.623 369.382C480.611 370.402 480.598 371.412 480.584 372.411C480.586 372.411 480.589 372.412 480.592 372.412C480.493 381.038 480.368 388.78 480.23 393.365C480.176 395.157 480.107 397.077 480.031 399.051C463.979 421.908 443.464 441.388 419.739 456.236" fill="#8A9BD0"/>
<path d="M367.333 671.461C208.777 671.461 80.2422 662.897 80.2422 652.33C80.2422 643.269 174.783 635.679 301.729 633.702C302.147 634.184 302.575 634.661 303.011 635.134C313.559 646.547 328.587 652.333 347.677 652.333C351.131 652.333 350.2 652.333 369.291 652.333C388.32 652.333 403.378 646.584 414.063 635.235C414.609 634.654 415.139 634.065 415.657 633.468C551.201 635 654.424 642.862 654.424 652.33C654.424 662.897 525.889 671.461 367.333 671.461Z" fill="#8A9BD0"/>
<path d="M279.402 467.669C279.402 467.669 278.597 451.119 255.182 442.306C255.182 442.306 258.806 464.653 279.402 467.669" fill="#55C38E"/>
<path d="M277.542 496.935C277.542 496.935 275.11 475.578 244.057 466.136C244.057 466.136 250.626 494.762 277.542 496.935Z" fill="#55C38E"/>
<path d="M285.303 539.263C285.303 539.263 281.776 514.499 245.344 504.53C245.344 504.53 253.921 537.616 285.303 539.263Z" fill="#55C38E"/>
<path d="M310.742 583.646C310.742 583.646 296.936 556.891 251.582 559.97C251.582 559.97 274.417 594.185 310.742 583.646Z" fill="#55C38E"/>
<path d="M279.369 467.985C279.369 467.985 282.574 451.729 307.023 446.415C307.023 446.415 300.186 467.999 279.369 467.985Z" fill="#55C38E"/>
<path d="M276.949 497.207C276.949 497.207 282.464 476.432 314.561 471.611C314.561 471.611 303.896 498.974 276.949 497.207Z" fill="#55C38E"/>
<path d="M284.719 539.071C284.719 539.071 281.608 514.252 314.133 495.049C314.133 495.049 314.563 529.226 284.719 539.071" fill="#55C38E"/>
<path d="M308.744 583.921C308.744 583.921 296.6 556.372 327.489 523.017C327.489 523.017 339.764 562.28 308.744 583.921Z" fill="#55C38E"/>
<path d="M279.745 467.163C279.745 467.163 256.834 562.581 361.707 630.754" stroke="#55C38E" stroke-width="2.68103" stroke-miterlimit="10" stroke-linecap="round"/>
<path d="M452.527 498.285C452.527 498.285 455.615 482.008 480.026 476.518C480.026 476.518 473.344 498.15 452.527 498.285" fill="#55C38E"/>
<path d="M449.727 527.802C449.727 527.802 455.093 506.987 487.153 501.934C487.153 501.934 476.685 529.376 449.727 527.802" fill="#55C38E"/>
<path d="M437.045 567.675C437.045 567.675 449.934 546.237 487.374 551.238C487.374 551.238 466.594 578.374 437.045 567.675Z" fill="#55C38E"/>
<path d="M406.771 608.814C406.771 608.814 428.637 588.118 470.431 605.999C470.431 605.999 437.579 630.755 406.771 608.814Z" fill="#55C38E"/>
<path d="M452.516 498.604C452.516 498.604 451.592 482.059 428.113 473.413C428.113 473.413 431.897 495.736 452.516 498.604Z" fill="#55C38E"/>
<path d="M449.736 527.72C449.736 527.72 447.151 506.383 416.029 497.163C416.029 497.163 422.804 525.741 449.736 527.72Z" fill="#55C38E"/>
<path d="M437.381 568.265C437.381 568.265 443.897 544.114 414.342 520.596C414.342 520.596 409.187 554.383 437.381 568.265Z" fill="#55C38E"/>
<path d="M407.38 609.356C407.38 609.356 423.219 583.753 397.246 546.444C397.246 546.444 379.651 583.63 407.38 609.356" fill="#55C38E"/>
<path d="M452.26 497.738C452.26 497.738 455.615 577.903 392.848 620.142" stroke="#55C38E" stroke-width="2.68103" stroke-miterlimit="10" stroke-linecap="round"/>
<path d="M152.062 652.332C159.143 636.977 171.752 591.926 152.326 582.504C140.144 576.596 136.568 586.713 136.568 586.713C136.568 586.713 145.37 537.433 124.501 537.327C112.334 537.266 110.283 551.234 110.283 551.234C110.283 551.234 103.669 535.824 95.5741 531.343C77.9831 521.611 57.0413 531.675 73.2703 559.206C77.6703 566.671 83.7794 572.045 83.7794 572.045C83.7794 572.045 65.4397 565.137 63.6453 578.253C61.8509 591.368 96.6146 612.2 96.6146 612.2C96.6146 612.2 86.2109 612.597 85.8018 624.615C85.2495 640.854 118.772 652.332 118.772 652.332H152.062Z" fill="#40AD69"/>
<path d="M85.6875 543.35C108.49 576.781 127.222 586.714 142.47 648.971" stroke="white" stroke-width="1.05862" stroke-miterlimit="10" stroke-linecap="round"/>
<path d="M167.527 652.332C166.778 629.506 200.471 582.08 180.061 570.58C167.263 563.368 163.652 576.404 163.652 576.404C163.652 576.404 192.481 527.552 164.9 524.278C155.286 523.136 149.711 537.185 149.711 537.185C149.711 537.185 149.48 512.033 141.781 502.611C129.222 487.242 102.938 495.829 109.139 528.967C112.539 547.141 125.024 554.335 125.024 554.335C125.024 554.335 112.395 544.696 106.371 557.352C98.2993 574.308 125.36 596.214 125.36 596.214C125.36 596.214 113.252 587.244 105.251 601.913C94.44 621.736 135.549 652.332 135.549 652.332H167.527Z" fill="#55C38E"/>
<path d="M131.049 520.858C146.483 560.049 154.526 603.05 157.86 648.478" stroke="white" stroke-width="1.05862" stroke-miterlimit="10" stroke-linecap="round"/>
<path d="M572.881 652.332C577.897 633.798 553.725 597.279 572.501 587.94C584.276 582.086 590.603 588.074 590.603 588.074C590.603 588.074 576.738 551.267 599.746 548.609C607.764 547.682 610.193 554.828 610.193 554.828C610.193 554.828 613.379 543.926 621.976 537.087C638.275 524.119 659.514 528.926 648.087 555.834C641.819 570.59 636.869 572.755 636.869 572.755C636.869 572.755 648.198 570.559 650.641 580.836C653.915 594.605 626.783 617.651 626.783 617.651C626.783 617.651 636.535 618.569 637.818 625.863C640.657 641.99 606.462 652.332 606.462 652.332H572.881Z" fill="#40AD69"/>
<path d="M640.659 539.781C609.441 565.127 608.285 616.713 592.473 646.502" stroke="white" stroke-width="0.966433" stroke-miterlimit="10" stroke-linecap="round"/>
<path d="M558.77 652.332C547.468 633.744 522.882 579.199 540.904 567.793C552.206 560.64 558.51 572.89 558.51 572.89C558.51 572.89 536.855 513.227 558.737 513.1C571.496 513.025 577.169 529.935 577.169 529.935C577.169 529.935 581.499 512.434 587.568 501.915C601.535 477.706 634.287 487.374 622.727 525.799C619.796 535.537 610.995 547.893 610.995 547.893C610.995 547.893 631.335 546.67 630.795 564.272C630.282 580.968 602.095 596.67 602.095 596.67C602.095 596.67 620.836 592.493 624.293 607.043C628.965 626.705 587.568 652.332 587.568 652.332H558.77" fill="#55C38E"/>
<path d="M607.14 511.57C591.392 564.932 568.32 572.892 567.994 648.266" stroke="white" stroke-width="0.966433" stroke-miterlimit="10" stroke-linecap="round"/>
<path d="M367.496 513.812C367.496 513.812 368.771 502.506 385.202 497.492C385.202 497.492 381.74 512.646 367.496 513.812Z" fill="#40AD69"/>
<path d="M367.49 533.943C367.49 533.943 370.091 519.416 391.781 514.306C391.781 514.306 386.027 533.632 367.49 533.943Z" fill="#40AD69"/>
<path d="M360.322 562.605C360.322 562.605 363.822 545.793 389.22 540.555C389.22 540.555 381.897 562.85 360.322 562.605Z" fill="#40AD69"/>
<path d="M340.953 591.904C340.953 591.904 351.582 574.176 382.523 578.268C382.523 578.268 365.381 600.714 340.953 591.904" fill="#40AD69"/>
<path d="M367.505 514.028C367.505 514.028 366.021 502.748 349.502 498.039C349.502 498.039 353.242 513.126 367.505 514.028Z" fill="#40AD69"/>
<path d="M367.885 534.156C367.885 534.156 365.014 519.68 343.234 514.972C343.234 514.972 349.345 534.19 367.885 534.156Z" fill="#40AD69"/>
<path d="M360.733 562.501C360.733 562.501 363.95 545.631 342.504 531.053C342.504 531.053 340.715 554.45 360.733 562.501Z" fill="#40AD69"/>
<path d="M342.308 592.179C342.308 592.179 351.832 573.834 332.127 549.631C332.127 549.631 321.999 575.996 342.308 592.179Z" fill="#40AD69"/>
<path d="M367.285 513.448C367.285 513.448 378.809 579.83 303.971 621.952" stroke="#40AD69" stroke-width="1.84072" stroke-miterlimit="10" stroke-linecap="round"/>
<path d="M312.12 483.831L312.453 466.926C313.028 437.751 316.984 414.973 324.549 397.294C332.187 379.439 346.795 360.701 369.208 340.002L369.56 339.688L421.486 294.394C440.395 276.215 449.591 257.708 449.591 237.829C449.591 218.921 444.179 204.772 433.046 194.571C421.65 184.149 403.953 178.858 380.454 178.858C357.09 178.858 338.406 183.908 324.923 193.867C312.647 202.931 306.931 214.264 306.931 229.539V246.116H199.785L200.03 229.299C200.636 187.541 218.378 153.41 252.763 127.855C285.706 103.369 328.667 90.9535 380.454 90.9535C434.357 90.9535 477.379 103.728 508.327 128.926C540.29 154.96 556.494 190.904 556.494 235.762C556.494 279.887 532.892 323.226 486.343 364.574L485.988 364.881L442.909 401.011C427.059 416.091 419.353 437.763 419.353 467.253V483.831H312.12M369.291 652.332C350.2 652.332 351.131 652.332 347.677 652.332C332.651 652.332 309.259 610.225 309.259 593.904C309.259 577.689 332.56 534.663 347.677 534.663C355.094 534.663 350.084 534.663 369.291 534.663C388.434 534.663 403.559 540.617 414.243 552.362C424.516 563.667 429.718 577.643 429.718 593.904C429.718 610.275 424.45 624.179 414.063 635.234C403.378 646.583 388.32 652.332 369.291 652.332" fill="#4565C9"/>
<path d="M290.508 483.831L290.842 466.926C291.417 437.751 295.373 414.973 302.936 397.294C310.576 379.439 325.184 360.701 347.596 340.002L347.947 339.688L399.874 294.394C418.784 276.215 427.98 257.708 427.98 237.829C427.98 218.921 422.568 204.772 411.433 194.571C400.039 184.149 382.342 178.858 358.843 178.858C335.477 178.858 316.795 183.908 303.312 193.867C291.036 202.931 285.32 214.264 285.32 229.539V246.116H178.174L178.417 229.299C179.025 187.541 196.767 153.41 231.151 127.855C264.094 103.369 307.056 90.9535 358.843 90.9535C412.746 90.9535 455.768 103.728 486.714 128.926C518.679 154.96 534.883 190.904 534.883 235.762C534.883 279.887 511.281 323.226 464.732 364.574L464.377 364.881L421.298 401.011C405.446 416.091 397.74 437.763 397.74 467.253V483.831H290.508M347.678 652.332C328.588 652.332 313.561 646.546 303.012 635.134C292.816 624.097 287.648 610.225 287.648 593.904C287.648 577.689 292.753 563.751 302.823 552.475C313.38 540.655 328.472 534.663 347.678 534.663C366.821 534.663 381.947 540.617 392.632 552.362C402.904 563.667 408.107 577.643 408.107 593.904C408.107 610.275 402.838 624.179 392.451 635.234C381.767 646.583 366.707 652.332 347.678 652.332" fill="#283F89"/>
<path d="M210.703 629.408C211.243 636.388 208.947 651.964 210.768 652.332H262.303C262.303 652.332 262.817 644.485 256.712 642.784C248.559 640.512 238.634 638.831 234.927 635.577C233.096 633.968 232.209 629.408 232.209 629.408H210.703" fill="#141C2A"/>
<path d="M248.169 640.603C248.169 640.603 241.62 640.01 239.273 643.737" stroke="#8ABDE8" stroke-width="1.13022" stroke-miterlimit="10" stroke-linecap="round" stroke-linejoin="round"/>
<path d="M242.257 638.857C242.257 638.857 235.708 638.265 233.361 641.991" stroke="#8ABDE8" stroke-width="1.13022" stroke-miterlimit="10" stroke-linecap="round" stroke-linejoin="round"/>
<path d="M180.671 629.408C180.013 639.43 181.752 651.489 178.929 652.332H144.677C144.677 652.332 144.191 646.72 148.758 642.054C150.631 640.141 155.051 637.954 157.059 635.939C158.882 634.111 159.164 629.408 159.164 629.408H180.671" fill="#141C2A"/>
<path d="M160.052 641.861C160.052 641.861 155.668 636.705 150.156 640.871" stroke="#8ABDE8" stroke-width="1.13022" stroke-miterlimit="10" stroke-linecap="round" stroke-linejoin="round"/>
<path d="M165.444 639.245C165.444 639.245 158.877 633.844 153.855 638.064" stroke="#8ABDE8" stroke-width="1.13022" stroke-miterlimit="10" stroke-linecap="round" stroke-linejoin="round"/>
<path d="M248.107 350.68C249.597 359.92 249.11 369.792 249.58 369.305C250.807 367.978 265.487 360.772 266.664 360.168C272.026 357.412 276.297 357.573 279.275 357.72C280.26 357.767 283.215 357.54 283.215 357.54C283.215 357.54 285.537 356.979 287.156 357.72C288.793 358.461 289.255 359.747 287.74 360.251C286.384 360.703 283.847 361.093 283.847 361.093C283.847 361.093 289.099 360.985 293.238 360.658C294.796 360.535 294.973 362.65 294.973 362.65C294.973 362.65 295.63 362.553 295.959 362.481C298.068 362.016 298.885 365.178 298.043 365.422C296.631 365.829 295.663 365.955 295.663 365.955C296.195 366.165 297.123 367.633 295.793 368.025C294.345 368.45 290.463 369.233 290.463 369.233C291.383 369.233 292.147 371.007 291.613 371.202C289.472 371.979 282.203 373.787 281.159 373.893C280.233 373.985 275.484 373.931 273.376 373.6C271.7 373.347 268.151 372.528 268.151 372.528C268.151 372.528 244.397 391.914 240.866 391.035C238.253 390.373 233.222 387.251 232.402 382.59C231.563 377.91 225.93 350.114 225.93 350.114C228.133 336.091 245.854 336.697 248.107 350.68" fill="#F49577"/>
<path d="M266.383 365.477C266.383 365.477 266.264 370.006 267.749 372.066" stroke="#DF7D58" stroke-width="0.753483" stroke-miterlimit="10" stroke-linecap="round" stroke-linejoin="round"/>
<path d="M280.307 361.578C280.307 361.578 277.962 365.486 270.668 364.969C276.205 365.978 279.706 371.62 279.706 371.62" stroke="#DF7D58" stroke-width="0.753483" stroke-miterlimit="10" stroke-linecap="round" stroke-linejoin="round"/>
<path d="M289.96 369.211L282.006 370.354" stroke="#DF7D58" stroke-width="0.753483" stroke-miterlimit="10" stroke-linecap="round" stroke-linejoin="round"/>
<path d="M294.467 365.83L282.496 367.218" stroke="#DF7D58" stroke-width="0.753483" stroke-miterlimit="10" stroke-linecap="round" stroke-linejoin="round"/>
<path d="M293.979 362.657L283.117 363.677" stroke="#DF7D58" stroke-width="0.753483" stroke-miterlimit="10" stroke-linecap="round" stroke-linejoin="round"/>
<path d="M226.032 252.015C226.032 252.015 228.235 254.313 228.769 259.412C229.303 264.512 225.328 271.285 225.328 271.285L226.032 252.015Z" fill="#222528"/>
<path d="M240.952 419.425C242.616 435.231 233.612 631.53 233.612 631.53H210.65C210.65 631.53 203.45 491.89 204.42 471.514C205.388 451.139 200.983 431.811 202.28 419.425C203.577 407.036 238.142 392.758 240.952 419.425" fill="#F03B50"/>
<path d="M210.232 420.007C210.254 490.981 181.472 631.53 181.472 631.53H157.805C157.805 631.53 169.733 471.632 170.176 451.184C170.496 436.501 172.152 426.286 173.599 413.854C176.044 392.86 210.223 393.286 210.232 420.007" fill="#F03B50"/>
<path d="M241.097 434.242C240.053 433.663 238.859 432.984 237.649 432.237C236.012 431.244 234.929 430.834 231.69 430.834C228.169 430.834 222.098 431.319 210 432.072C209.997 432.072 209.995 432.072 209.992 432.072C210.041 430.788 210.082 429.524 210.115 428.273C210.291 428.271 210.466 428.268 210.64 428.266C227.41 427.958 238.793 425.703 241.144 425.2C241.162 427.641 241.144 430.684 241.097 434.242" fill="#EF2F3F"/>
<path d="M205.03 432.236C204.131 432.236 203.239 432.22 202.359 432.186C187.704 431.588 175.752 426.466 172.271 424.825C172.336 424.286 172.402 423.746 172.468 423.206C175.577 424.033 192.352 428.279 208.921 428.281C209.32 428.281 209.719 428.278 210.116 428.272C210.082 429.523 210.041 430.787 209.993 432.071C209.698 432.087 209.4 432.103 209.088 432.12C207.721 432.198 206.366 432.236 205.03 432.236Z" fill="#EF2F3F"/>
<path d="M233.749 306.484C250.589 322.289 249.647 364.34 249.647 364.34C249.647 364.34 234.142 374.648 224.916 370.625C224.916 370.625 217.939 327.502 221.622 314.202C223.872 306.08 230.617 303.545 233.749 306.484" fill="#17203E"/>
<path d="M235.258 308.021C234.967 307.7 234.668 307.386 234.365 307.083C234.607 307.32 234.909 307.631 235.258 308.021ZM233.785 306.518C233.775 306.508 233.762 306.496 233.75 306.486H233.753L233.785 306.518Z" fill="#98A0B5"/>
<path d="M240.947 368.902C241.71 354.841 242.705 339.39 242.723 331.671C242.749 320.077 237.301 310.608 233.75 306.487C233.762 306.497 233.775 306.509 233.785 306.519V306.52C233.87 306.61 234.073 306.793 234.365 307.084C234.668 307.387 234.967 307.701 235.258 308.022C238.571 311.715 246.107 322.517 245.435 346.449C245.209 354.513 245.271 362.098 244.809 367.107C243.656 367.697 242.349 368.317 240.947 368.902Z" fill="#131A2E"/>
<path d="M190.544 300.112C190.544 300.112 165.847 304.171 165.092 308.675C164.338 313.18 173.738 378.138 173.738 393.387C173.738 408.634 171.956 423.068 171.956 423.068C171.956 423.068 191.744 428.612 210.641 428.266C229.537 427.92 241.595 425.101 241.595 425.101C241.595 425.101 240.499 406.348 240.122 393.871C239.745 381.395 242.693 345.003 242.724 331.671C242.751 320.075 237.3 310.606 233.75 306.485C230.815 303.079 215.383 299.496 215.383 299.496L190.544 300.112Z" fill="#17203E"/>
<path d="M173.663 398.022C173.712 396.497 173.73 394.938 173.73 393.38C173.73 383.253 169.569 351.161 167.016 329.461L167.021 329.457C169.585 351.165 173.737 383.253 173.737 393.386C173.737 394.929 173.718 396.462 173.686 397.974C173.679 397.99 173.67 398.006 173.663 398.022Z" fill="#98A0B5"/>
<path d="M173.686 397.973C173.718 396.461 173.737 394.928 173.737 393.385C173.737 383.252 169.585 351.164 167.021 329.456L186.112 318.387C188.466 325.796 188.466 370.819 178.768 388.34C176.66 392.147 174.993 395.33 173.686 397.973" fill="#131A2E"/>
<path d="M192.796 291.005L190.545 300.166C190.545 300.166 200.243 316.329 211.691 314.713C223.139 313.096 215.383 299.496 215.383 299.496L215.839 293.428L194.721 280.913L192.796 291.005" fill="#DF7D58"/>
<path d="M227.148 256.386C227.743 259.426 227.493 269.342 226.897 277C226.321 284.405 224.328 295.14 220.121 296.08C215.915 297.02 197.845 293.529 197.002 283.139C193.923 280.709 182.227 266.386 186.345 259.297C193.668 246.695 225.23 246.613 227.148 256.386" fill="#F49577"/>
<path d="M213.651 271.971C213.651 273.008 213.087 273.849 212.394 273.849C211.7 273.849 211.137 273.008 211.137 271.971C211.137 270.934 211.7 270.095 212.394 270.095C213.087 270.095 213.651 270.934 213.651 271.971Z" fill="#222528"/>
<path d="M224.887 271.448C224.887 272.485 224.324 273.324 223.63 273.324C222.935 273.324 222.373 272.485 222.373 271.448C222.373 270.411 222.935 269.571 223.63 269.571C224.324 269.571 224.887 270.411 224.887 271.448Z" fill="#222528"/>
<path d="M214.507 267.399C213.303 267.08 212.19 266.86 211.128 267.016C210.059 267.132 209.122 267.712 208.105 268.453C208.339 267.878 208.675 267.305 209.197 266.903C209.689 266.463 210.341 266.197 211.004 266.104C212.343 265.932 213.677 266.454 214.507 267.399" fill="#222528"/>
<path d="M220.078 266.873C220.907 265.929 222.241 265.407 223.581 265.58C224.242 265.673 224.895 265.939 225.387 266.377C225.91 266.779 226.245 267.354 226.479 267.928C225.462 267.187 224.527 266.606 223.456 266.492C222.394 266.335 221.281 266.555 220.078 266.873" fill="#222528"/>
<path d="M219.156 274.205C219.332 275.287 219.922 276.259 220.444 277.227L222.1 280.137C222.377 280.63 222.662 281.117 222.895 281.671C223.001 281.957 223.133 282.229 223.143 282.653C223.136 282.777 223.141 282.887 223.071 283.066C223.008 283.233 222.949 283.274 222.882 283.38C222.748 283.54 222.605 283.667 222.461 283.753C221.887 284.119 221.329 284.267 220.755 284.38C220.186 284.492 219.615 284.55 219.036 284.524L219.016 284.418C220.014 283.914 221.113 283.491 221.835 282.911C222.006 282.758 222.088 282.629 222.037 282.677C222.016 282.543 221.967 282.279 221.886 282.042C221.73 281.55 221.525 281.033 221.312 280.526L219.954 277.465C219.555 276.422 219.086 275.362 219.049 274.209L219.156 274.205" fill="#E55F3F"/>
<path d="M223.113 286.152C223.113 286.152 219.704 285.835 216.334 287.52C216.334 287.52 222.127 288.363 222.652 287.784C223.179 287.205 223.113 286.152 223.113 286.152Z" fill="white"/>
<path d="M227.713 259.02C226.793 260.991 220.513 263.866 208.983 263.23C208.983 263.23 214.753 261.651 216.019 257.136C216.019 257.136 211.373 264.248 202.326 264.066C202.326 264.066 203.123 270.419 199.217 276.944C199.217 276.944 196.619 280.379 197.004 283.141C197.366 285.737 194.619 290.376 192.796 291.429C191.699 283.214 183.095 267.149 184.77 258.1C186.464 248.95 194.72 248.788 194.72 248.788C198.478 242.814 212.358 240.362 221.411 245.3C228.112 248.955 229.386 255.432 227.713 259.02" fill="#222528"/>
<path d="M200.16 274.132C198.232 269.387 191.734 269.776 191.7 273.774C191.641 280.339 195.6 282.283 197.003 283.14C198.407 283.996 201.323 276.993 200.16 274.132Z" fill="#F49577"/>
<path d="M160.588 350.929C159.098 360.169 157.847 369.257 157.379 368.768C156.151 367.443 134.838 361.648 133.511 360.854C127.282 357.129 122.923 357.719 120.173 357.719L116.234 357.538C116.234 357.538 113.912 356.978 112.293 357.719C110.655 358.459 110.193 359.745 111.708 360.25C113.064 360.702 115.601 361.092 115.601 361.092C115.601 361.092 110.349 360.983 106.209 360.656C104.651 360.533 104.475 362.648 104.475 362.648C104.475 362.648 103.818 362.551 103.488 362.479C101.379 362.014 100.563 365.177 101.405 365.42C102.817 365.828 103.785 365.954 103.785 365.954C103.254 366.164 102.324 367.632 103.654 368.023C105.102 368.449 108.984 369.232 108.984 369.232C108.065 369.232 107.3 371.005 107.835 371.2C109.976 371.977 117.245 373.786 118.289 373.891C119.216 373.984 123.965 373.93 126.071 373.598C127.748 373.346 131.281 373.198 131.281 373.198C131.281 373.198 161.44 387.813 165.048 388.268C168.317 388.68 173.757 387.527 175.51 382.589C177.1 378.108 183.715 350.815 183.715 350.815C181.51 336.792 162.841 336.946 160.588 350.929" fill="#F49577"/>
<path d="M131.664 372.854C131.664 372.854 133.082 370.903 133.436 368.184" stroke="#DF7D58" stroke-width="0.753483" stroke-miterlimit="10" stroke-linecap="round" stroke-linejoin="round"/>
<path d="M119.141 361.578C119.141 361.578 121.486 365.486 128.78 364.969C123.243 365.978 119.742 371.62 119.742 371.62" stroke="#DF7D58" stroke-width="0.753483" stroke-miterlimit="10" stroke-linecap="round" stroke-linejoin="round"/>
<path d="M109.488 369.211L117.441 370.354" stroke="#DF7D58" stroke-width="0.753483" stroke-miterlimit="10" stroke-linecap="round" stroke-linejoin="round"/>
<path d="M104.98 365.83L116.952 367.218" stroke="#DF7D58" stroke-width="0.753483" stroke-miterlimit="10" stroke-linecap="round" stroke-linejoin="round"/>
<path d="M105.469 362.657L116.332 363.677" stroke="#DF7D58" stroke-width="0.753483" stroke-miterlimit="10" stroke-linecap="round" stroke-linejoin="round"/>
<path d="M165.051 308.636C156.861 324.972 156.578 361.866 156.578 361.866C156.578 361.866 172.726 370.268 182.327 366.374C182.327 366.374 188.554 331.258 186.115 318.382C184.627 310.518 169.036 300.687 165.051 308.636" fill="#17203E"/>
<path d="M511.31 629.408C510.77 636.388 513.064 651.964 511.244 652.332H459.708C459.708 652.332 459.195 644.485 465.299 642.784C473.454 640.512 483.377 638.831 487.085 635.577C488.915 633.968 489.803 629.408 489.803 629.408H511.31Z" fill="#F03B50"/>
<path d="M473.844 640.603C473.844 640.603 480.394 640.01 482.739 643.737" stroke="#8ABDE8" stroke-width="1.13022" stroke-miterlimit="10" stroke-linecap="round" stroke-linejoin="round"/>
<path d="M479.756 638.857C479.756 638.857 486.305 638.265 488.651 641.991" stroke="#8ABDE8" stroke-width="1.13022" stroke-miterlimit="10" stroke-linecap="round" stroke-linejoin="round"/>
<path d="M541.344 629.408C542.001 639.43 540.261 651.489 543.085 652.332H577.337C577.337 652.332 577.824 646.72 573.256 642.054C571.384 640.141 566.962 637.954 564.954 635.939C563.131 634.111 562.85 629.408 562.85 629.408H541.344" fill="#F03B50"/>
<path d="M561.961 641.861C561.961 641.861 566.345 636.705 571.857 640.871" stroke="#8ABDE8" stroke-width="1.13022" stroke-miterlimit="10" stroke-linecap="round" stroke-linejoin="round"/>
<path d="M556.566 639.245C556.566 639.245 563.134 633.844 568.156 638.064" stroke="#8ABDE8" stroke-width="1.13022" stroke-miterlimit="10" stroke-linecap="round" stroke-linejoin="round"/>
<path d="M479.465 418.819C477.799 434.627 488.889 631.53 488.889 631.53H511.851C511.851 631.53 519.049 491.89 518.081 471.514C517.112 451.139 521.518 431.811 520.221 419.425C518.923 407.036 482.274 392.153 479.465 418.819Z" fill="#17203E"/>
<path d="M512.27 420.007C512.249 490.981 541.031 631.53 541.031 631.53H564.697C564.697 631.53 552.77 471.632 552.327 451.184C552.008 436.501 550.352 426.286 548.904 413.854C546.459 392.86 512.278 393.286 512.27 420.007" fill="#17203E"/>
<path d="M479.438 434.275C479.349 430.452 479.299 427.191 479.299 424.607C481.911 425.195 494.992 427.955 511.86 428.265C512.035 428.268 512.209 428.271 512.384 428.272C512.413 429.343 512.447 430.414 512.487 431.508C505.511 431.14 499.794 430.986 495.259 430.986C488.526 430.986 484.397 431.326 482.605 431.822C481.427 432.137 480.333 433.131 479.438 434.275" fill="#131A2E"/>
<path d="M550.32 425.424C550.23 424.685 550.138 423.944 550.047 423.202C550.048 423.202 550.051 423.202 550.053 423.2C550.144 423.942 550.233 424.683 550.321 425.422C550.32 425.424 550.32 425.424 550.32 425.424" fill="#A3A9BD"/>
<path d="M520.167 431.821C518.841 431.821 517.481 431.788 516.122 431.705C514.88 431.639 513.668 431.556 512.492 431.507C512.49 431.507 512.489 431.507 512.487 431.507C512.448 430.413 512.414 429.343 512.385 428.272C512.784 428.278 513.183 428.281 513.582 428.281C530.171 428.281 546.967 424.022 550.046 423.202C550.137 423.944 550.229 424.684 550.319 425.424C546.34 427.181 534.537 431.773 520.167 431.821Z" fill="#131A2E"/>
<path d="M489.824 306.484C472.983 322.289 473.924 364.34 473.924 364.34C473.924 364.34 489.431 374.648 498.655 370.625C498.655 370.625 505.633 327.502 501.949 314.202C499.7 306.08 492.954 303.545 489.824 306.484" fill="#3D82C7"/>
<path d="M536.931 300.112C536.931 300.112 560.443 307.587 561.198 312.091C561.952 316.596 548.883 377.404 548.883 392.653C548.883 407.899 550.547 423.068 550.547 423.068C550.547 423.068 530.759 428.612 511.862 428.266C492.966 427.92 478.824 424.498 478.824 424.498C478.824 424.498 479.852 405.842 480.231 393.366C480.606 380.889 480.88 345.003 480.85 331.671C480.825 320.075 486.273 310.606 489.826 306.485C492.761 303.079 512.093 299.496 512.093 299.496L536.931 300.112" fill="#3D82C7"/>
<path d="M480.591 372.412C480.588 372.412 480.585 372.411 480.582 372.411C480.597 371.412 480.61 370.401 480.622 369.382L480.626 369.379C480.614 370.398 480.603 371.412 480.591 372.412" fill="#A8CDE4"/>
<path d="M480.623 369.382C480.629 368.932 480.633 368.48 480.638 368.027C480.639 368.027 480.641 368.027 480.641 368.027C480.636 368.478 480.632 368.93 480.627 369.379L480.623 369.382" fill="#5084CC"/>
<path d="M480.64 368.027C480.64 368.027 480.638 368.027 480.637 368.027C480.665 365.577 480.687 363.089 480.712 360.613C480.69 363.091 480.666 365.578 480.64 368.027" fill="#3269B7"/>
<path d="M500.951 301.999L500.954 301.993C506.557 300.518 512.093 299.491 512.093 299.491C512.092 299.492 512.089 299.494 512.088 299.495C511.935 299.523 506.472 300.543 500.951 301.999" fill="#639AD8"/>
<path d="M549.192 405.017C545.43 397.608 538.351 390.794 534.754 389.65C530.268 388.22 493.007 373.005 488.691 373.005C488.606 373.005 488.532 373.011 488.474 373.024C488.084 373.103 487.589 373.139 487.026 373.139C485.24 373.139 482.745 372.789 480.592 372.413C480.604 371.412 480.615 370.399 480.627 369.379C480.631 368.931 480.636 368.479 480.64 368.027C480.667 365.578 480.69 363.09 480.712 360.613C480.718 359.958 480.725 359.305 480.731 358.652L500.952 301.999C506.473 300.543 511.936 299.523 512.089 299.496C510.43 300.835 508.131 308.363 506.442 312.104C504.735 315.852 495.452 355.122 495.452 355.122L527.047 358.255C530.992 328.118 539.496 315.968 539.496 315.968L558.293 331.831C554.647 352.303 548.877 382.522 548.877 392.651C548.877 396.894 549.011 401.121 549.192 405.017" fill="#3269B7"/>
<path d="M534.679 291.005L536.929 300.166C536.929 300.166 527.231 316.329 515.784 314.713C504.335 313.096 512.091 299.496 512.091 299.496L511.636 293.428L532.753 280.913L534.679 291.005" fill="#DF7D58"/>
<path d="M501.152 256.499C500.557 259.538 499.982 269.343 500.577 277C501.152 284.405 503.144 295.124 507.35 296.064C511.557 297.003 529.627 293.53 530.471 283.14C533.549 280.709 545.248 266.386 541.128 259.298C533.806 246.696 503.07 246.727 501.152 256.499" fill="#F49577"/>
<path d="M513.824 271.971C513.824 273.008 514.387 273.849 515.08 273.849C515.775 273.849 516.338 273.008 516.338 271.971C516.338 270.934 515.775 270.095 515.08 270.095C514.387 270.095 513.824 270.934 513.824 271.971Z" fill="#222528"/>
<path d="M502.836 271.232C502.836 272.269 503.398 273.109 504.091 273.109C504.787 273.109 505.35 272.269 505.35 271.232C505.35 270.197 504.787 269.355 504.091 269.355C503.398 269.355 502.836 270.197 502.836 271.232Z" fill="#222528"/>
<path d="M512.869 268.163C513.523 266.985 514.886 266.234 516.326 266.256C517.037 266.284 517.762 266.476 518.33 266.885C518.921 267.255 519.358 267.802 519.642 268.406C518.997 268.175 518.463 267.909 517.907 267.759C517.366 267.585 516.834 267.504 516.3 267.498C515.223 267.457 514.136 267.762 512.869 268.163Z" fill="#222528"/>
<path d="M508.269 267.424C507 267.023 505.914 266.717 504.837 266.759C504.305 266.765 503.769 266.846 503.228 267.019C502.674 267.17 502.14 267.434 501.496 267.667C501.779 267.063 502.218 266.516 502.807 266.146C503.376 265.735 504.099 265.545 504.811 265.517C506.253 265.495 507.615 266.246 508.269 267.424Z" fill="#222528"/>
<path d="M508.425 274.208C508.394 275.396 507.935 276.499 507.542 277.585L506.197 280.773C505.985 281.303 505.782 281.838 505.625 282.356C505.54 282.605 505.482 282.878 505.457 283.053L505.449 283.136L505.45 283.129L505.604 283.321C506.295 283.944 507.439 284.397 508.458 284.934L508.436 285.043C507.836 285.065 507.248 284.997 506.66 284.871C506.069 284.744 505.49 284.569 504.905 284.151C504.756 284.035 504.617 283.906 504.491 283.701C504.435 283.636 504.353 283.446 504.333 283.299L504.322 282.951C504.356 282.552 504.487 282.274 504.594 281.983C504.833 281.417 505.113 280.907 505.391 280.393L507.039 277.354C507.558 276.342 508.141 275.326 508.316 274.204L508.425 274.208Z" fill="#DF7D58"/>
<path d="M504.02 287.513C504.02 287.513 507.332 286.291 510.703 287.975C510.703 287.975 504.911 288.818 504.383 288.239C503.856 287.66 504.02 287.513 504.02 287.513" fill="white"/>
<path d="M500.506 260.418C501.424 262.388 518.001 262.253 527.047 262.072C527.047 262.072 524.353 270.418 528.257 276.943C528.257 276.943 530.856 280.378 530.47 283.14C530.108 285.736 534.382 291.775 534.636 289.685C535.426 283.188 544.435 264.704 541.997 255.83C539.935 248.321 535.218 248.671 535.218 248.671C531.46 242.696 522.116 245.917 503.341 241.781C495.886 240.138 498.831 256.829 500.506 260.418" fill="#222528"/>
<path d="M527.314 274.132C529.243 269.387 535.74 269.776 535.776 273.774C535.834 280.339 531.876 282.283 530.471 283.14C529.067 283.996 526.153 276.993 527.314 274.132Z" fill="#F49577"/>
<path d="M478.534 368.75C481.369 369.743 482.179 369.975 483.329 370.004C486.15 370.078 488.012 369.867 488.012 369.867C488.012 369.867 529.954 384.571 533.937 384.341C536.887 384.155 543.312 382.26 546.08 377.559C548.726 373.062 554.593 355.062 556.762 347.073C560.844 332.048 540.762 329.669 535.501 344.286C532.025 353.944 531.088 363.982 530.683 363.362C529.627 361.684 494.761 358.142 494.051 356.876C492.655 354.386 487.648 353.259 486.225 353.198C484.663 353.132 483.986 352.849 483.348 352.708C481.42 352.286 479.753 354.158 481.62 354.993C483.05 355.632 485.646 356.688 485.646 356.688C485.646 356.688 476.671 353.487 474.946 352.837C473.222 352.187 471.245 354.719 473.609 356.067C475.973 357.413 476.447 357.615 476.447 357.615C476.447 357.615 474.813 356.508 473.236 356.901C472.177 357.164 472.795 360.138 473.965 360.487C474.102 360.527 474.583 360.666 474.583 360.666C474.583 360.666 472.309 362.963 475.502 364.117C475.762 364.211 476.045 364.308 476.045 364.308C476.045 364.308 474.171 365.908 475.642 366.888C477.113 367.866 478.534 368.75 478.534 368.75" fill="#F49577"/>
<path d="M507.478 305.913C506.438 310.194 504.633 309.149 504.076 310.398C503.486 311.723 492.273 354.089 491.861 356.028C490.532 362.285 482.617 367.196 478.06 365.126C473.092 362.87 471.373 355.912 472.291 351.965C473.195 348.08 493.411 307.163 493.411 307.163C493.411 307.163 494.944 294.411 495.743 293.958C497.973 292.695 502.138 291.226 502.66 291.12C504.163 290.815 511.253 291.166 511.209 291.122C511.164 291.076 511.105 292.761 509.954 293.505C509.473 293.816 503.905 294.414 503.905 294.414C503.905 294.414 509.018 294.684 509.251 295.187C509.485 295.689 510.084 301.479 509.859 302.122C509.094 304.295 507.591 305.485 507.478 305.913" fill="#F49577"/>
<path d="M499.281 295.394L501.731 294.814" stroke="#DF7D58" stroke-width="0.753483" stroke-miterlimit="10" stroke-linecap="round" stroke-linejoin="round"/>
<path d="M499.762 297.595C499.762 297.595 506.975 297.689 507.19 297.869C507.409 298.05 507.913 301.246 508.447 301.734C508.98 302.221 509.251 302.168 509.251 302.168" stroke="#DF7D58" stroke-width="0.753483" stroke-miterlimit="10" stroke-linecap="round" stroke-linejoin="round"/>
<path d="M498.631 300.433C498.631 300.433 504.522 301.085 504.882 301.246C505.241 301.409 505.892 304.715 507.03 304.769C508.169 304.823 508.449 303.522 508.449 303.522" stroke="#DF7D58" stroke-width="0.753483" stroke-miterlimit="10" stroke-linecap="round" stroke-linejoin="round"/>
<path d="M498.98 303.334L503.779 304.064" stroke="#DF7D58" stroke-width="0.753483" stroke-miterlimit="10" stroke-linecap="round" stroke-linejoin="round"/>
<path d="M502.154 305.581C501.015 305.69 501.559 307.695 502.154 307.803C502.75 307.912 504.755 308.02 505.189 307.803C505.621 307.586 506.425 306.431 506.44 305.533C506.447 305.115 505.786 303.334 505.786 303.334" stroke="#DF7D58" stroke-width="0.753483" stroke-miterlimit="10" stroke-linecap="round" stroke-linejoin="round"/>
<path d="M504.874 309.523C504.874 309.523 502.23 311.066 498.234 310.347" stroke="#DF7D58" stroke-width="0.753483" stroke-miterlimit="10" stroke-linecap="round" stroke-linejoin="round"/>
<path d="M503.538 311.174C503.538 311.174 502.365 311.931 499.762 310.978" stroke="#DF7D58" stroke-width="0.753483" stroke-miterlimit="10" stroke-linecap="round" stroke-linejoin="round"/>
<path d="M503.398 291.038C503.398 291.038 510.876 291.121 511.21 291.121C511.543 291.12 510.903 293.267 509.954 293.505C509.006 293.744 503.906 294.414 503.906 294.414C503.906 294.414 509.149 294.771 509.252 295.187C509.355 295.602 509.654 297.868 509.654 297.868" stroke="#DF7D58" stroke-width="0.753483" stroke-miterlimit="10" stroke-linecap="round" stroke-linejoin="round"/>
<path d="M561.239 312.052C568.947 320.456 552.019 366.344 552.019 366.344C552.019 366.344 538.841 365.442 529.24 361.548C529.24 361.548 536.621 321.585 539.494 315.964C543.135 308.837 555.225 305.499 561.239 312.052Z" fill="#3D82C7"/>
<path d="M492.086 355.12C490.944 359.894 486.814 366.711 479.576 365.494C473.584 364.485 472.41 356.877 472.41 356.877" stroke="#DF7D58" stroke-width="0.753483" stroke-miterlimit="10" stroke-linecap="round" stroke-linejoin="round"/>
<path d="M197.439 169.721C197.439 199.27 173.484 223.226 143.935 223.226C114.386 223.226 90.4316 199.27 90.4316 169.721C90.4316 140.172 114.386 116.219 143.935 116.219C173.484 116.219 197.439 140.172 197.439 169.721Z" fill="#BAC4E3"/>
<path d="M125.735 169.722C125.735 173.492 122.679 176.547 118.91 176.547C115.141 176.547 112.086 173.492 112.086 169.722C112.086 165.953 115.141 162.898 118.91 162.898C122.679 162.898 125.735 165.953 125.735 169.722Z" fill="white"/>
<path d="M150.761 169.722C150.761 173.492 147.706 176.547 143.936 176.547C140.167 176.547 137.111 173.492 137.111 169.722C137.111 165.953 140.167 162.898 143.936 162.898C147.706 162.898 150.761 165.953 150.761 169.722Z" fill="white"/>
<path d="M175.786 169.722C175.786 173.492 172.73 176.547 168.961 176.547C165.192 176.547 162.137 173.492 162.137 169.722C162.137 165.953 165.192 162.898 168.961 162.898C172.73 162.898 175.786 165.953 175.786 169.722Z" fill="white"/>
<path d="M141.592 219.255C141.592 219.255 147.087 232.749 168.961 233.478C168.961 233.478 159.589 226.785 159.517 215.697L141.592 219.255Z" fill="#BAC4E3"/>
<path d="M538.482 211.736C538.482 241.287 562.438 265.24 591.987 265.24C621.536 265.24 645.489 241.287 645.489 211.736C645.489 182.187 621.536 158.233 591.987 158.233C562.438 158.233 538.482 182.187 538.482 211.736Z" fill="#BAC4E3"/>
<path d="M610.188 211.735C610.188 215.505 613.243 218.56 617.012 218.56C620.781 218.56 623.836 215.505 623.836 211.735C623.836 207.966 620.781 204.911 617.012 204.911C613.243 204.911 610.188 207.966 610.188 211.735Z" fill="white"/>
<path d="M585.164 211.735C585.164 215.505 588.219 218.56 591.987 218.56C595.756 218.56 598.811 215.505 598.811 211.735C598.811 207.966 595.756 204.911 591.987 204.911C588.219 204.911 585.164 207.966 585.164 211.735Z" fill="white"/>
<path d="M560.137 211.735C560.137 215.505 563.192 218.56 566.961 218.56C570.73 218.56 573.787 215.505 573.787 211.735C573.787 207.966 570.73 204.911 566.961 204.911C563.192 204.911 560.137 207.966 560.137 211.735Z" fill="white"/>
<path d="M594.332 261.269C594.332 261.269 588.835 274.762 566.961 275.491C566.961 275.491 576.333 268.799 576.406 257.711L594.332 261.269Z" fill="#BAC4E3"/>
<path d="M284.842 652.332C284.842 652.332 285.662 631.878 266.363 616.619C266.363 616.619 293.322 619.606 295.515 652.33L284.842 652.332" fill="#55C38E"/>
<path d="M287.691 652.331C287.691 652.331 285.157 618.426 315.38 611.426C315.38 611.426 298.003 623.656 296.275 652.331H287.691" fill="#40AD69"/>
<path d="M287.691 652.331C287.691 652.331 294.561 622.096 323.182 623.175C323.182 623.175 301.519 635.34 300.262 652.331H287.691" fill="#55C38E"/>
<path d="M432.909 652.332C432.909 652.332 429.065 639.549 446.145 632.61C446.145 632.61 426.833 628.891 425.264 652.33L432.909 652.332Z" fill="#55C38E"/>
<path d="M430.867 652.331C430.867 652.331 427.31 638.062 434.692 620.295C434.692 620.295 421.006 627.02 424.719 652.331H430.867" fill="#40AD69"/>
<path d="M430.868 652.331C430.868 652.331 429.767 636 409.266 636.775C409.266 636.775 423.943 641.522 421.864 652.331H430.868Z" fill="#55C38E"/>
</svg>
