<svg width="849" height="565" viewBox="0 0 849 565" fill="none" xmlns="http://www.w3.org/2000/svg">
<path d="M648.483 516.566C648.483 516.566 720.335 514.859 751.037 471.337C806.66 392.497 781.592 323.358 682.568 328.502C637.305 330.856 612.817 291.444 586.598 252.03C548.65 194.987 507.076 137.942 393.639 207.53C380.155 215.802 361.32 215.771 340.755 215.743C297.801 215.678 247.299 215.615 222.254 291.218C213.447 317.804 147.31 319.655 104.567 340.975C37.519 374.417 56.4536 517.122 119.794 517.684C183.135 518.246 648.483 516.566 648.483 516.566Z" fill="#EBF2F9"/>
<path d="M294.936 119.924L306.113 120.913V147.736L280.238 119.924H294.936ZM157.474 62.4129L303.45 106.359H130.053C129.757 104.616 128.233 103.276 126.407 103.276H96.871L157.474 62.4129ZM311.713 150.344H308.273V118.938L307.193 118.842V106.359L307.507 105.327L157.116 60.0511L94.3365 102.381L94.9403 103.276C92.9041 103.276 91.2383 104.94 91.2383 106.977V128.557C91.2383 130.591 92.9041 132.258 94.9403 132.258H126.407C128.443 132.258 130.11 130.591 130.11 128.557V119.924H151.087V517.018H175.768V119.924H277.289L305.59 150.344H299.786C297.748 150.344 296.083 152.008 296.083 154.045V157.742C296.083 159.779 297.748 161.443 299.786 161.443H311.713C313.751 161.443 315.416 159.779 315.416 157.742V154.045C315.416 152.008 313.751 150.344 311.713 150.344Z" fill="#D2E4FF"/>
<path d="M255.223 516.952H146.642C151.871 513.096 170.639 499.646 187.636 492.383C194.681 489.374 201.42 487.428 206.765 487.668C223.721 488.428 247.486 509.621 255.223 516.952" fill="#E27F2B"/>
<path d="M220.708 516.952H112.127C119.522 511.497 154.003 486.852 172.251 487.668C177.011 487.883 182.308 489.708 187.637 492.383C201.288 499.237 215.142 511.678 220.708 516.952" fill="#E69D43"/>
<path d="M601.169 203.527V185.125L608.838 184.45H618.919L601.169 203.527ZM703.13 144.999L744.701 173.028H724.438C723.186 173.028 722.143 173.946 721.94 175.144H602.998L703.13 144.999ZM746.024 173.028L746.44 172.415L703.376 143.38L600.217 174.435L600.429 175.144V183.707L599.688 183.772V205.315H597.33C595.931 205.315 594.789 206.457 594.789 207.852V210.389C594.789 211.787 595.931 212.929 597.33 212.929H605.511C606.908 212.929 608.05 211.787 608.05 210.389V207.852C608.05 206.457 606.908 205.315 605.511 205.315H601.528L620.943 184.45H690.582V456.833H707.511V184.45H721.9V190.371C721.9 191.767 723.042 192.908 724.438 192.908H746.024C747.42 192.908 748.565 191.767 748.565 190.371V175.568C748.565 174.17 747.42 173.028 746.024 173.028" fill="#EBF2F9"/>
<path d="M399.386 517.385H541.812V74.4699H399.386V517.385Z" fill="#D2E4FF"/>
<path d="M399.386 200.467H502.474V135.58H399.386V200.467Z" fill="#C0DBFF"/>
<path d="M399.386 319.288H502.474V254.4H399.386V319.288Z" fill="#C0DBFF"/>
<path d="M399.386 436.573H502.474V371.685H399.386V436.573Z" fill="#C0DBFF"/>
<path d="M719.364 436.157H700.142V376.154H541.812V74.4698H502.474V517.633H541.812V517.385H700.142H719.364V436.157Z" fill="#AED3FF"/>
<path d="M785.433 518.433H60.8286C60.4368 518.433 60.1162 518.113 60.1162 517.721C60.1162 517.331 60.4368 517.009 60.8286 517.009H785.433C785.823 517.009 786.145 517.331 786.145 517.721C786.145 518.113 785.823 518.433 785.433 518.433Z" fill="#283250"/>
<path d="M571.253 517.02C571.253 517.02 571.536 510.89 573.181 507.601C574.826 504.313 587.988 506.573 587.988 506.573C587.988 506.573 591.021 512.059 590.611 516.992L571.253 517.02" fill="#233862"/>
<path d="M535.929 517.02C535.929 517.02 536.211 510.89 537.857 507.601C539.502 504.313 552.666 506.573 552.666 506.573C552.666 506.573 555.7 512.059 555.287 516.992L535.929 517.02" fill="#233862"/>
<path d="M579.781 256.835C578.138 258.027 563.255 265.791 563.255 265.791L547.561 254.606C547.561 254.606 552.329 253.914 552.454 253.877C553.87 253.482 553.805 249.685 553.986 245.645C554.011 245.021 554.045 244.394 554.093 243.77L569.46 243.213L569.471 243.402C569.485 243.597 569.5 243.801 569.514 244.013L569.545 244.45C569.556 244.603 569.567 244.753 569.579 244.911C569.859 248.462 570.449 253.479 571.586 254.064C572.23 254.397 576.603 254.346 579.781 256.835" fill="#D9935C"/>
<path d="M569.579 244.911C568.313 247.445 565.489 251.857 561.302 251.71C557.305 251.569 555.029 247.939 553.986 245.645C554.012 245.021 554.046 244.394 554.094 243.769L569.46 243.213L569.472 243.402L569.514 244.012L569.545 244.45C569.556 244.603 569.568 244.752 569.579 244.911Z" fill="#CB7D45"/>
<path d="M552.265 209.533C552.265 209.533 559.677 202.157 568.423 209.68C568.423 209.68 563.221 208.603 552.265 209.533Z" fill="#2B478B"/>
<path d="M549.515 236.665C549.515 236.665 547.168 231.808 545.718 226.153C544.684 222.113 545.631 206.787 561.048 207.83C561.048 207.83 565.512 207.934 569.888 210.432C573.365 212.42 578.507 216.887 574.156 230.523L573.105 235.099L549.515 236.665Z" fill="#B64C41"/>
<path d="M571.084 243.1C567.104 246.902 562.16 251.97 551.502 242.6C549.416 240.766 549.558 237.947 549.436 233.899C549.289 229.108 548.136 226.172 548.673 223.41C549.309 220.104 552.136 218.613 558.004 218.101C568.78 217.166 574.227 219.593 573.504 224.938C571.89 236.865 575.129 239.232 571.084 243.1Z" fill="#D9935C"/>
<path d="M562.3 217.906C562.3 217.906 568.688 217.771 570.147 219.906C571.606 222.039 571.806 224.426 572.541 225.63C573.276 226.833 573.155 228.184 573.155 228.184L574.574 218.655L565.927 216.937L562.3 217.906Z" fill="#B64C41"/>
<path d="M599.558 270.466C599.558 270.466 596.83 278.5 585.772 279.972C585.472 280.011 585.164 280.045 584.85 280.076H539.81C539.81 280.076 539.725 280.051 539.57 280.003C537.82 279.446 527.058 275.762 525.928 268.872C525.928 268.872 531.584 257.261 535.904 255.821C537.164 255.4 538.906 255.086 540.737 254.846C542.612 254.606 544.582 254.445 546.236 254.34C548.514 254.199 550.185 254.162 550.185 254.162C550.185 254.162 553.693 261.27 562.23 261.166C570.764 261.061 572.743 254.267 572.743 254.267C572.743 254.267 575.14 254.335 578.323 254.679C580.078 254.869 582.071 255.14 584.036 255.533C587.366 256.194 590.608 257.194 592.463 258.697C597.398 262.705 599.558 270.466 599.558 270.466" fill="#9ED9F0"/>
<path d="M588.844 332.604C588.363 329.943 587.651 325.892 587.091 322.33C587.094 322.282 588.759 302.216 589.375 298.829C589.994 295.439 585.802 276.986 585.802 276.986C584.827 274.164 583.173 273.299 581.904 273.299L584.035 255.533C582.071 255.14 580.078 254.869 578.322 254.68L577.302 273.299L577.285 273.568C574.95 273.698 572.038 273.853 569.327 273.974C566.616 274.099 564.103 274.186 562.557 274.186C559.414 274.186 552.203 273.828 547.411 273.565L547.391 273.299L546.235 254.341C544.581 254.445 542.611 254.606 540.737 254.846L542.775 273.299V273.302C541.432 273.302 539.889 275.684 539.677 277.006L539.471 282.777C538.456 285.684 536.355 292.142 536.005 296.673C535.544 302.662 538.049 323.505 538.066 323.649C537.975 326.132 537.797 329.308 537.458 332.378C535.578 337.475 527.55 361.174 528.367 393.04C529.13 422.79 529.579 473.62 533.088 498.299C533.659 502.305 534.306 505.622 535.052 508.046C535.428 509.269 536.485 510.156 537.755 510.331C541.777 510.89 550.843 511.916 554.744 510.498C556.612 509.817 557.952 499.443 558.899 486.067C559.807 473.247 560.352 457.664 560.655 445.229L560.658 445.22C560.901 435.307 560.994 427.392 560.994 424.462C560.994 417.835 562.563 398.387 563.08 386.949C563.094 386.624 563.566 386.621 563.589 386.943V386.946C564.375 400.526 567.12 421.12 567.165 425.697C567.267 436.796 566.619 508.102 571.473 510.498C575.185 512.328 583.931 510.944 588.109 510.379C589.621 510.176 590.862 509.099 591.289 507.636C596.51 489.694 596.971 427.349 597.85 393.04C598.656 361.623 590.868 338.141 588.844 332.604" fill="#2B478B"/>
<path d="M547.934 345.436C546.394 346.67 541.356 346.153 539.403 344.512C537.447 342.865 533.54 343.379 532.616 342.763C532.551 342.721 514.363 321.18 512.39 312.115C510.4 302.967 522.99 277.794 526.555 270.932C529.192 276.5 537.978 279.506 539.544 280.003C539.702 280.051 539.784 280.076 539.784 280.076H540.273C537.308 288.085 528.443 302.504 525.028 307.937C524.18 309.287 524.073 310.976 524.746 312.425C529.133 321.827 533.424 329.757 535.304 335.249C535.677 335.859 536.477 336.952 537.447 336.802C538.787 336.596 543.103 335.672 545.263 338.856C547.422 342.046 549.478 344.204 547.934 345.436" fill="#D9935C"/>
<path d="M575.623 209.748C575.623 209.748 574.439 208.14 572.316 206.338C571.979 206.047 571.618 205.753 571.233 205.465C567.326 202.493 561.076 199.595 553.543 202.736C551.502 203.586 549.803 204.742 548.392 206.081C548.059 206.397 547.742 206.719 547.445 207.056C540.913 214.299 541.467 225.658 541.467 225.658L579.162 225.257C579.284 214.74 575.623 209.748 575.623 209.748" fill="#FFA412"/>
<path d="M568.573 225.37C568.466 223.786 567.745 210.788 572.316 206.341C571.98 206.05 572.059 206.101 571.674 205.807C566.801 210.918 566.49 223.718 566.507 225.39L554.459 225.52C554.1 216.294 549.006 207.107 548.393 206.081C548.059 206.398 547.997 206.46 547.697 206.793C548.582 208.35 551.909 217.243 552.229 225.543L541.467 225.659C541.467 225.659 551.505 228.252 559.067 228.159C566.628 228.065 579.162 225.257 579.162 225.257L568.573 225.37" fill="#E27F2B"/>
<path d="M549.362 275.245C545.506 282.644 534.552 284.031 534.552 284.031C538.103 275.398 530.954 272.677 526.533 263.838C522.112 254.998 529.925 249.139 529.925 249.139C525.091 250.066 524.167 256.541 524.167 256.541C523.757 252.224 527.355 244.93 538.77 243.489C547.129 242.435 549.147 239.619 549.628 238.187C549.814 240.046 550.267 241.5 551.516 242.599C552.398 243.376 553.243 244.051 554.049 244.639C554.029 244.975 554.015 245.311 553.998 245.645C553.95 246.78 553.919 247.902 553.865 248.927C552.373 250.707 552.415 252.6 552.67 253.789C552.825 254.529 553.065 254.998 553.065 254.998C554.261 256.659 554.869 258.292 555.044 259.928C555.576 264.818 552.254 269.697 549.362 275.245" fill="#B64C41"/>
<path d="M588.756 332.121L587.091 322.332C578.978 325.338 571.312 326.649 564.538 327.01C563.744 325.541 562.288 324.465 560.524 324.208L554.543 323.344C552.182 323.002 549.958 324.231 548.92 326.236C543.176 325.349 539.298 324.047 538.068 323.598L538.065 323.652L537.472 332.245V332.268C540.926 333.186 544.239 333.901 547.408 334.443L547.23 335.641C546.792 338.613 548.844 341.378 551.818 341.825L558.447 342.819C561.607 343.291 564.496 340.957 564.697 337.768L564.813 335.926C577.449 335.861 585.847 333.206 588.756 332.121" fill="#233862"/>
<path d="M612.996 312.115C611.023 321.18 592.835 342.721 592.77 342.763C592.612 342.868 592.366 342.941 592.058 342.998L592.024 343.003C590.52 343.263 587.591 343.156 585.983 344.512C584.03 346.153 578.989 346.67 577.446 345.436C575.905 344.204 577.963 342.046 580.12 338.856C582.28 335.672 586.599 336.596 587.936 336.802C588.731 336.924 589.42 336.209 589.842 335.61L589.867 335.576C589.946 335.461 590.023 335.348 590.079 335.249C591.919 329.876 596.061 322.18 600.343 313.053C601.203 311.228 601.075 309.086 600.004 307.377C597.143 302.809 591.337 293.323 587.603 285.712C587.167 283.512 586.732 281.441 586.396 279.876C594.602 278.557 598 273.568 599.097 271.44C602.975 278.961 614.938 303.179 612.996 312.115" fill="#D9935C"/>
<path d="M736.121 351.19C733.368 351.823 720.936 351.975 712.206 350.015C710.386 349.608 708.724 349.108 707.347 348.5C705.702 347.774 704.464 346.899 703.831 345.845C702.844 344.204 701.038 338.579 698.915 331.206C693.069 310.891 684.843 277.322 684.843 277.322C684.843 277.322 701.363 280.692 704.857 283.568C708.356 286.444 711.44 332.073 714.728 333.308C715.214 333.488 716.051 333.873 717.119 334.398C717.173 334.423 717.224 334.452 717.278 334.474C717.917 334.791 718.635 335.155 719.412 335.553C726.233 339.056 737.521 345.367 738.691 346.772C740.234 348.619 740.133 350.263 736.121 351.19" fill="#739AF0"/>
<path d="M704.421 303.301C704.421 302.524 704.345 301.747 704.203 300.967C702.078 289.286 685.173 277.322 684.843 277.322L684.84 277.565C684.84 279.35 682.021 282.647 677.685 282.93C672.537 283.266 666.188 280.334 666.188 277.37C666.157 277.37 663.296 277.757 662.327 277.864C658.203 278.333 649.971 280.56 646.446 283.223C643.093 285.755 647.831 301.716 650.765 313.019C652.006 317.799 652.925 321.745 652.772 323.494C652.699 324.347 651.93 335.949 651.246 346.444C650.678 355.103 650.166 363.004 650.152 363.499C650.112 364.482 655.005 367.925 663.22 370.53C665.205 371.157 667.387 371.736 669.736 372.219C673.954 373.084 678.722 373.643 683.912 373.624C685.609 373.618 687.217 373.533 688.735 373.381C700.469 372.231 704.489 358.866 704.421 303.301Z" fill="#739AF0"/>
<path d="M666.192 277.234C666.093 272.694 666.166 267.279 666.78 262.702L684.902 265.66C684.902 265.66 684.922 271.188 684.843 277.321C684.852 277.324 685.335 283.011 678.324 283.842C671.314 284.675 666.002 281.624 666.192 277.234Z" fill="#D9935C"/>
<path d="M681.352 517.023C679.074 515.622 680.414 505.235 680.414 505.235C680.414 505.235 691.085 496.768 692.524 503.288C693.963 509.806 702.596 512.763 707.515 513.58C710.91 514.142 712.162 515.896 712.484 517.009L681.352 517.023Z" fill="#233862"/>
<path d="M664.753 338.446C664.753 355.814 656.329 351.133 651.246 346.444C651.93 335.949 652.411 298.778 652.411 298.778C652.411 298.778 664.753 313.575 664.753 338.446" fill="#4A75CB"/>
<path d="M719.412 335.553C719.076 337.991 715.226 345.082 712.207 350.015C710.386 349.608 708.724 349.108 707.347 348.5C705.702 347.774 704.464 346.899 703.831 345.845C702.844 344.204 701.038 338.579 698.915 331.206C700.487 322.129 701.979 313.165 701.979 313.165L702.443 307.154C702.443 307.617 709.484 334.028 712.676 334.644C714.598 335.02 715.961 334.565 717.12 334.398C717.173 334.423 717.224 334.452 717.278 334.474C717.917 334.791 718.635 335.155 719.412 335.553" fill="#4A75CB"/>
<path d="M648.651 517.023C646.373 515.622 647.71 505.235 647.71 505.235C647.71 505.235 658.384 496.768 659.823 503.288C661.259 509.806 669.895 512.763 674.814 513.58C678.209 514.142 679.441 515.896 679.763 517.009L648.651 517.023Z" fill="#233862"/>
<path d="M664.467 257.479C664.467 257.479 652.368 238.418 675.596 237.156C675.596 237.156 684.308 238.181 686.282 236.209C686.282 236.209 693.041 246.475 686.728 257.479C680.419 268.482 664.467 257.479 664.467 257.479Z" fill="#233862"/>
<path d="M684.365 267.426C682.604 268.81 677.44 270.186 675.947 270.347C675.947 270.347 668.292 268.64 666.901 267.801C664.744 266.496 664.883 263.852 664.773 260.18C664.643 255.829 664.202 252.414 664.688 249.908C665.267 246.908 667.17 245.201 672.496 244.738C682.276 243.891 686.35 246.337 686.519 249.614C686.565 250.493 686.604 251.332 686.633 252.128C687.025 262.346 686.217 265.968 684.365 267.426Z" fill="#D9935C"/>
<path d="M686.723 255.476C686.627 261.397 685.029 264.9 683.87 265.344C682.539 265.852 680.97 266.273 679.336 266.555C678.785 266.618 678.256 266.601 678.262 266.287C678.282 265.355 679.528 264.202 678.601 263.377C677.629 262.51 672.408 262.216 671.986 264.109C671.78 265.033 673.465 266.66 672.312 266.7C671.961 266.64 671.616 266.572 671.288 266.485C669.386 265.99 667.893 265.092 667.266 264.711C665.109 263.406 665.25 261.405 664.775 257.758C664.464 255.402 664.464 256.679 664.775 260.179C665.097 263.841 664.464 266.191 666.901 267.801C668.255 268.697 676.063 272.203 676.063 272.203C675.947 270.347 682.604 268.81 684.365 267.426C685.999 266.143 686.819 263.171 686.723 255.476" fill="#233862"/>
<path d="M650.152 363.498C650.116 364.482 655.009 367.925 663.224 370.527C663.885 370.739 664.572 370.942 665.276 371.137L665.293 371.157C666.059 380.143 668.134 392.839 670.005 405.088V405.091C670.488 408.266 670.958 411.413 671.39 414.456C672.532 422.507 673.386 429.846 673.479 435.126V435.183C673.519 437.607 671.472 443.652 671.32 445.048C671.223 445.901 671.147 446.805 671.091 447.751C670.867 451.534 670.958 456.006 671.263 460.777C672.606 481.606 678.112 508.257 680.077 509.39C683.984 511.647 691.09 509.387 694.703 508.862C696.198 508.638 697.397 507.364 697.318 505.859C695.554 471.292 700.622 423.148 704.41 393.556C704.509 392.785 704.608 392.028 704.704 391.285C705.157 387.796 705.456 384.536 705.646 381.598C705.818 379.022 705.903 376.683 705.94 374.654C705.948 374.022 705.954 373.417 705.957 372.846C705.965 370.993 704.492 358.865 704.424 303.3C704.422 302.015 703.37 300.967 702.087 300.967H668.086C664.798 300.967 662.155 303.654 662.195 306.936C662.248 311.174 662.096 317.092 661.174 322.742C659.919 330.457 657.233 337.664 651.687 339.398L651.673 339.41C651.648 339.466 651.495 339.802 651.252 340.364L651.249 340.373C651.198 341.769 651.139 343.189 651.074 344.636C651.063 344.927 651.051 345.221 651.034 345.512C651.029 345.684 651.02 345.853 651.009 346.029C650.997 346.32 650.983 346.616 650.966 346.913C650.944 347.399 650.921 347.89 650.893 348.385C650.87 348.775 650.851 349.162 650.828 349.554C650.788 350.306 650.74 351.068 650.692 351.837C650.681 352.083 650.664 352.326 650.647 352.574C650.582 353.569 650.514 354.577 650.435 355.591C650.415 355.902 650.39 356.213 650.364 356.529C650.356 356.679 650.344 356.831 650.33 356.981C650.299 357.379 650.268 357.778 650.234 358.176C650.2 358.6 650.164 359.026 650.127 359.453C649.991 361.012 650.192 362.405 650.152 363.498" fill="#2B478B"/>
<path d="M671.263 460.777C672.605 481.606 678.112 508.257 680.077 509.39C683.983 511.647 691.09 509.387 694.703 508.862C696.198 508.638 697.397 507.364 697.317 505.859C695.553 471.292 700.622 423.148 704.41 393.556C704.509 392.785 704.608 392.028 704.704 391.285C705.156 387.796 705.456 384.536 705.645 381.598C703.844 369.866 693.676 369.236 684.455 393.508C685.595 401.562 670.957 456.006 671.263 460.777" fill="#233862"/>
<path d="M649.771 434.146C649.491 436.556 646.673 442.279 646.334 443.644C641.672 462.379 644.247 506.802 646.557 508.579C650.133 511.328 657.477 510.023 661.126 509.972C662.642 509.952 663.993 508.845 664.114 507.342C666.981 471.945 678.859 423.329 686.497 394.732C690.344 380.327 690.887 369.733 690.887 369.733C690.887 369.733 655.19 347.876 651.329 359.818C647.911 370.383 651.925 415.659 649.771 434.146" fill="#2B478B"/>
<path d="M686.132 231.828C685.883 231.551 685.623 231.283 685.349 231.023C684.184 229.916 682.782 228.961 681.095 228.26C674.87 225.664 669.708 228.06 666.483 230.512C666.163 230.752 665.864 230.995 665.587 231.232C663.834 232.724 662.853 234.051 662.853 234.051C662.853 234.051 659.831 238.173 659.933 246.86L691.071 247.193C691.071 247.193 691.529 237.812 686.132 231.828" fill="#FFA412"/>
<path d="M668.671 246.95L670.381 246.97C670.415 246.475 670.333 235.181 666.118 230.797C665.799 231.034 665.864 230.994 665.587 231.232C669.59 235.093 668.679 246.834 668.671 246.95Z" fill="#E27F2B"/>
<path d="M682.199 247.1C682.556 240.185 685.207 232.919 685.922 231.628C685.676 231.342 685.623 231.289 685.349 231.023C684.851 231.876 680.789 239.399 680.359 247.081L659.933 246.86C659.933 246.86 670.284 249.182 676.529 249.259C682.776 249.338 691.07 247.194 691.07 247.194L682.199 247.1" fill="#E27F2B"/>
<path d="M661.103 278.031C661.103 278.031 671.624 290.28 672.243 300.967L666.883 301.252C666.883 301.252 665.532 289.348 657.614 278.763C657.614 278.763 658.852 278.463 659.265 278.381C659.816 278.271 661.103 278.031 661.103 278.031Z" fill="#2B478B"/>
<path d="M687.336 277.862C694.872 289.261 695.681 301.199 695.681 301.199L701.091 301.106C700.647 292.704 695.364 283.464 692.45 279.085C692.45 279.085 688.707 278.139 687.336 277.862" fill="#2B478B"/>
<path d="M675.588 395.409H671.243C669.225 394.494 658.345 389.785 647.888 389.728C640.343 389.686 631.747 395.319 631.23 395.378C629.918 395.534 635.6 395.584 635.6 395.584C635.6 395.584 644.114 391.819 647.939 391.731C651.586 391.646 659.682 394.296 662.916 395.409H638.568C636.53 395.409 634.865 397.076 634.865 399.11V426.857C634.865 428.891 636.53 430.555 638.568 430.555H675.588C677.624 430.555 679.289 428.891 679.289 426.857V399.11C679.289 397.076 677.624 395.409 675.588 395.409" fill="#FFA412"/>
<path d="M663.556 395.409H626.536C624.498 395.409 622.833 397.076 622.833 399.11V426.857C622.833 428.891 624.498 430.555 626.536 430.555H663.556C665.592 430.555 667.257 428.891 667.257 426.857V399.11C667.257 397.076 665.592 395.409 663.556 395.409Z" fill="#E27F2B"/>
<path d="M652.685 343.783C652.948 356.326 651.385 381.302 651.385 381.302H643.981C640.484 363.727 639.252 352.422 639.252 346.255C639.252 345.04 639.258 343.91 639.266 342.865C639.314 337.599 639.455 334.54 639.455 334.54C638.067 302.634 644.445 285.574 646.446 283.223C648.45 280.873 657.612 278.763 657.612 278.763C657.612 278.763 660.64 287.577 661.875 294.667C663.107 301.758 652.168 331.553 652.62 341.738C652.645 342.37 652.668 343.057 652.685 343.783" fill="#739AF0"/>
<path d="M748.78 352.32H742.793C742.199 352.32 741.713 352.809 741.713 353.405V516.351C741.713 516.944 742.199 517.433 742.793 517.433H748.78C749.376 517.433 749.86 516.944 749.86 516.351V353.405C749.86 352.809 749.376 352.32 748.78 352.32Z" fill="#F1A34F"/>
<path d="M748.78 352.32H742.793C742.199 352.32 741.713 352.809 741.713 353.405V358.453H749.86V353.405C749.86 352.809 749.376 352.32 748.78 352.32Z" fill="#2B478B"/>
<path d="M741.713 516.351C741.713 516.944 742.199 517.433 742.793 517.433H748.78C749.376 517.433 749.86 516.944 749.86 516.351V511.994H741.713V516.351Z" fill="#2B478B"/>
<path d="M745.838 362.998C745.499 362.998 745.222 363.275 745.222 363.614V507.042C745.222 507.381 745.499 507.658 745.838 507.658C746.177 507.658 746.454 507.381 746.454 507.042V363.614C746.454 363.275 746.177 362.998 745.838 362.998" fill="#E27F2B"/>
<path d="M651.385 381.302C651.385 381.302 652.948 356.326 652.685 343.783C646.763 341.876 641.988 342.294 639.266 342.865C639.258 343.91 639.252 345.04 639.252 346.255C639.252 352.422 640.484 363.727 643.981 381.302C642.438 387.774 642.542 394.763 645.214 395.997C647.888 397.229 656.733 392.604 656.628 390.551C656.527 388.494 651.385 381.302 651.385 381.302" fill="#D9935C"/>
<path d="M752.69 352.422C751.969 349.777 751.432 348.311 749.612 347.029C746.963 345.161 743.819 345.667 741.476 346.077C739.687 346.39 737.812 345.791 737.026 345.489C732.877 342.726 722.463 337.031 717.278 334.474C713.739 336.525 709.391 340.582 707.348 348.501C715.328 352.018 732.795 351.956 736.122 351.19C736.122 351.19 739.2 353.425 741.544 353.631C742.429 353.707 743.548 353.45 744.594 353.1C746.239 352.549 748.006 353.1 749.187 354.56C750.327 355.967 751.814 356.738 752.43 356.738C753.382 356.738 753.145 354.088 752.69 352.422" fill="#D9935C"/>
<path d="M124.138 384.519H87.1183C85.0821 384.519 83.416 386.183 83.416 388.217V415.964C83.416 418.001 85.0821 419.665 87.1183 419.665H124.138C126.175 419.665 127.84 418.001 127.84 415.964V388.217C127.84 386.183 126.175 384.519 124.138 384.519Z" fill="#FFA412"/>
<path d="M136.17 384.519H99.1502C97.1141 384.519 95.4482 386.183 95.4482 388.217V415.964C95.4482 418.001 97.1141 419.665 99.1502 419.665H136.17C138.206 419.665 139.872 418.001 139.872 415.964V388.217C139.872 386.183 138.206 384.519 136.17 384.519Z" fill="#E27F2B"/>
<path d="M91.1289 384.672C91.1289 384.672 99.9212 378.197 101.232 378.352C102.544 378.508 104.626 378.968 104.626 378.968L96.7591 384.903L91.1289 384.672" fill="#FFA412"/>
<path d="M158.443 327.629C157.9 327.776 157.311 327.915 156.682 328.047C156.246 328.143 155.793 328.231 155.324 328.319C155.315 328.104 155.309 327.889 155.299 327.68C155.179 324.77 155.043 321.999 154.852 319.36C154.692 317.154 154.494 315.041 154.235 313.027C157.311 321.132 159.455 327.358 158.443 327.629V327.629ZM160.525 282.404C156.999 279.74 148.768 277.514 144.644 277.045C143.675 276.937 140.778 276.923 140.747 276.923C140.747 279.887 134.432 282.446 129.286 282.11C124.949 281.825 122.132 278.531 122.132 276.745L122.129 276.74C121.796 276.74 104.893 288.463 102.768 300.145C102.626 300.924 102.549 301.701 102.549 302.478C102.481 358.043 99.1122 366.566 100.176 366.546C100.176 366.546 106.501 371.408 118.236 372.558C119.754 372.711 121.361 372.795 123.058 372.804C128.247 372.821 133.017 372.264 137.234 371.397C139.584 370.917 141.766 370.338 143.749 369.708C151.965 367.106 156.857 363.662 156.82 362.679C156.78 361.583 156.981 360.193 156.845 358.634C156.333 352.752 156.052 347.61 155.836 342.435C164.752 343.218 169.895 342.336 169.895 342.336C177.197 326.635 165.295 286.003 160.525 282.404" fill="#9ED9F0"/>
<path d="M122.132 276.743C122.132 276.743 109.074 278.721 103.451 283.404C97.8284 288.085 97.2599 317.9 95.3858 326.33C95.0171 327.986 94.6861 330.655 94.4009 333.913C93.3951 345.351 94.6002 361.213 95.5969 367.075C95.7026 368.488 95.6487 370.567 94.8303 372.609C93.3906 376.208 93.0822 377.234 95.6529 379.291C98.2239 381.347 101 384.223 102.954 383.401C104.461 382.768 104.194 372.779 103.993 368.242C106.249 358.552 109.902 340.365 113.34 322.74C117.928 299.241 122.132 276.743 122.132 276.743" fill="#D9935C"/>
<path d="M122.133 276.745C122.133 276.745 119.709 289.709 116.534 306.236C115.529 311.479 114.446 317.081 113.341 322.742C108.846 331.542 104.99 337.528 103.799 336.401C101.368 334.107 97.1017 333.825 94.4023 333.909C94.6862 330.655 95.0194 327.985 95.3864 326.33C95.5345 325.663 95.6733 324.864 95.809 323.957C97.3824 313.349 98.2742 287.715 103.451 283.404C106.175 281.138 110.642 279.505 114.526 278.421H114.529C116.513 277.867 118.345 277.46 119.715 277.183C121.196 276.887 122.133 276.745 122.133 276.745Z" fill="#9ED9F0"/>
<path d="M103.799 336.401C101.369 334.11 97.1021 333.825 94.4014 333.912C94.6866 330.655 95.0176 327.985 95.3862 326.33C95.5341 325.663 95.6737 324.864 95.8088 323.954L109.283 291.45C109.283 291.45 104.99 337.528 103.799 336.401" fill="#74ACBE"/>
<path d="M140.782 276.412C140.881 271.875 140.806 266.457 140.193 261.881L122.071 264.841C122.071 264.841 122.072 270.367 122.151 276.5L122.133 276.503C122.133 276.503 121.639 282.189 128.65 283.023C135.661 283.856 140.971 280.802 140.782 276.412" fill="#D9935C"/>
<path d="M125.615 517.009C127.893 515.608 126.561 505.15 126.561 505.15C126.561 505.15 115.888 496.683 114.45 503.203C113.012 509.72 104.377 512.678 99.4595 513.495C96.0644 514.057 95.0197 515.941 94.6982 517.054L125.615 517.009" fill="#233862"/>
<path d="M156.685 328.062C156.685 328.062 153.291 332.646 152.597 332.646C151.903 332.646 143.342 329.333 145.798 321.92C148.253 314.51 154.235 313.027 154.235 313.027C154.494 315.041 154.692 317.154 154.852 319.361C155.043 321.999 155.179 324.77 155.3 327.68C155.309 327.889 155.315 328.104 155.324 328.319C155.793 328.231 156.247 328.143 156.682 328.047L156.685 328.062" fill="#74ACBE"/>
<path d="M158.317 517.009C160.595 515.608 159.262 505.15 159.262 505.15C159.262 505.15 148.59 496.683 147.151 503.203C145.713 509.72 137.079 512.678 132.161 513.495C128.766 514.057 127.721 515.941 127.399 517.054L158.317 517.009" fill="#233862"/>
<path d="M142.506 256.66C142.506 256.66 154.603 237.6 131.375 236.337C131.375 236.337 122.662 237.362 120.69 235.39C120.69 235.39 113.932 245.654 120.243 256.66C126.554 267.663 142.506 256.66 142.506 256.66Z" fill="#B64C41"/>
<path d="M122.608 266.606C124.369 267.99 129.532 269.363 131.025 269.524C131.025 269.524 138.68 267.818 140.072 266.979C142.227 265.674 142.089 263.033 142.199 259.357C142.332 255.01 142.77 251.594 142.284 249.086C141.707 246.088 139.804 244.382 134.477 243.919C124.698 243.068 120.624 245.518 120.453 248.795C120.409 249.673 120.368 250.512 120.34 251.306C119.948 261.524 120.756 265.148 122.608 266.606Z" fill="#D9935C"/>
<path d="M120.251 254.656C120.346 260.575 121.943 264.081 123.101 264.521C124.433 265.033 126.001 265.454 127.637 265.733C128.187 265.798 128.715 265.778 128.709 265.468C128.691 264.533 127.443 263.383 128.371 262.555C129.344 261.688 134.566 261.397 134.987 263.29C135.192 264.211 133.508 265.841 134.662 265.877C135.012 265.818 135.356 265.75 135.684 265.665C137.586 265.171 139.079 264.27 139.707 263.891C141.863 262.586 141.722 260.583 142.199 256.939C142.507 254.58 142.507 255.86 142.199 259.357C141.876 263.018 142.507 265.369 140.072 266.979C138.716 267.877 130.911 271.38 130.911 271.38C131.025 269.524 124.369 267.99 122.608 266.606C120.974 265.321 120.153 262.352 120.251 254.656" fill="#B64C41"/>
<path d="M156.821 362.679C156.858 363.662 151.965 367.106 143.749 369.708C143.088 369.92 142.402 370.12 141.698 370.318L141.681 370.338C140.915 379.324 138.84 392.017 136.969 404.269V404.272C136.484 407.447 136.015 410.591 135.583 413.634C134.442 421.688 133.587 429.024 133.495 434.307V434.361C133.455 436.785 135.5 442.83 135.654 444.228C135.75 445.082 135.827 445.986 135.883 446.932C136.105 450.715 136.015 455.184 135.71 459.958C134.368 480.787 128.861 507.435 126.896 508.571C122.99 510.828 115.882 508.568 112.27 508.04C110.774 507.819 109.577 506.545 109.654 505.037C111.418 470.47 106.35 422.329 102.561 392.734C102.463 391.963 102.364 391.209 102.268 390.466C101.815 386.977 101.515 383.717 101.327 380.779C101.154 378.203 101.071 375.861 101.034 373.832C101.025 373.199 101.019 372.598 101.016 372.027C101.006 370.174 102.481 358.043 102.549 302.478C102.55 301.196 103.602 300.145 104.887 300.145H138.889C142.174 300.145 144.818 302.832 144.777 306.117C144.724 310.355 144.877 316.273 145.798 321.92C147.053 329.635 149.74 336.845 155.287 338.579L155.3 338.59C155.325 338.647 155.477 338.983 155.721 339.545L155.723 339.554C155.775 340.949 155.833 342.37 155.898 343.817C155.911 344.108 155.923 344.399 155.938 344.692C155.944 344.865 155.954 345.034 155.963 345.207C155.975 345.5 155.991 345.797 156.006 346.091C156.028 346.58 156.052 347.068 156.08 347.565C156.102 347.955 156.123 348.342 156.145 348.735C156.185 349.486 156.231 350.246 156.281 351.015C156.293 351.263 156.308 351.506 156.327 351.755C156.392 352.749 156.46 353.755 156.537 354.769C156.558 355.083 156.583 355.394 156.608 355.707C156.617 355.86 156.629 356.009 156.642 356.162C156.672 356.557 156.703 356.956 156.737 357.357C156.771 357.781 156.808 358.204 156.845 358.634C156.981 360.193 156.78 361.583 156.821 362.679" fill="#2B478B"/>
<path d="M135.709 459.958C134.368 480.787 128.861 507.435 126.895 508.571C122.99 510.828 115.882 508.568 112.269 508.04C110.773 507.819 109.576 506.545 109.654 505.037C111.418 470.47 106.349 422.329 102.561 392.734C102.462 391.963 102.363 391.209 102.268 390.466C101.814 386.977 101.515 383.717 101.327 380.779C103.129 369.044 113.297 368.417 122.518 392.689C126.47 402.091 136.015 455.184 135.709 459.958" fill="#233862"/>
<path d="M157.202 433.327C157.482 435.734 160.302 441.46 160.64 442.825C165.302 461.56 162.726 505.983 160.415 507.76C156.84 510.509 149.495 509.201 145.846 509.153C144.333 509.13 142.98 508.023 142.858 506.52C139.992 471.125 128.114 422.51 120.476 393.912C116.63 379.505 116.085 368.914 116.085 368.914C116.085 368.914 151.784 347.057 155.645 358.998C159.062 369.564 155.049 414.837 157.202 433.327Z" fill="#2B478B"/>
<path d="M144.118 233.232C144.118 233.232 143.139 231.901 141.385 230.412C141.108 230.172 140.809 229.932 140.491 229.692C137.265 227.237 132.102 224.844 125.878 227.438C124.192 228.141 122.789 229.096 121.625 230.2C121.349 230.46 121.088 230.729 120.842 231.006C115.445 236.989 115.902 246.374 115.902 246.374L147.041 246.04C147.142 237.353 144.118 233.232 144.118 233.232" fill="#FFA412"/>
<path d="M138.304 246.131C138.296 246.015 137.384 234.274 141.386 230.412C141.109 230.172 141.175 230.215 140.857 229.974C136.642 234.359 136.557 245.653 136.593 246.15L138.304 246.131" fill="#E27F2B"/>
<path d="M126.635 246.258C126.339 238.636 122.13 231.048 121.625 230.201C121.349 230.461 121.297 230.514 121.051 230.791C121.781 232.074 124.53 239.422 124.792 246.278L115.902 246.374C115.902 246.374 124.196 248.515 130.442 248.439C136.689 248.36 147.041 246.041 147.041 246.041L126.635 246.258" fill="#E27F2B"/>
<path d="M145.868 277.209C145.868 277.209 135.347 289.458 134.729 300.145H140.077C140.077 300.145 141.44 288.529 149.357 277.943L145.868 277.209" fill="#2B478B"/>
<path d="M119.714 277.183C112.178 288.582 111.283 300.145 111.283 300.145H105.937C106.381 291.743 111.61 282.797 114.525 278.421H114.528C116.512 277.867 118.344 277.46 119.714 277.183Z" fill="#2B478B"/>
<path d="M126.52 344.72C126 333.353 129.595 310.465 134.912 294.046C135.509 292.209 136.125 290.452 136.761 288.8C136.999 288.297 137.236 287.808 137.474 287.325C133.38 298.529 130.305 314.541 128.97 327.988C128.286 334.94 128.069 341.206 128.414 345.771C129.036 353.975 134.152 360.829 140.439 365.188C131.673 360.346 126.839 351.729 126.52 344.72V344.72ZM139.39 367.004C127.981 361.637 122.294 350.526 122.573 342.325C122.817 335.045 125.118 323.265 128.47 311.609C125.855 324.208 124.397 336.988 124.756 344.839C125.208 354.78 132.275 363.046 140.168 367.352C139.907 367.244 139.653 367.128 139.39 367.004V367.004ZM120.301 342.325C120.747 329.073 127.998 300.927 136.015 285.732C135.735 286.404 135.452 287.099 135.175 287.814C127.599 303.848 121.236 329.35 120.804 342.237C120.62 347.627 122.409 352.755 125.284 357.153C121.821 352.297 120.145 346.865 120.301 342.325V342.325ZM174.027 343.387C173.827 339.316 173.27 334.474 172.207 328.717C172.204 331.491 172.023 334.115 171.616 336.488C172.939 347.026 172.427 355.08 170.078 359.639C168.622 362.467 166.607 364.637 164.167 366.089C165.411 364.88 166.508 363.439 167.435 361.778C169.241 358.543 170.904 352.523 170.287 341.418C170.163 341.734 170.033 342.04 169.894 342.336C169.894 342.336 169.436 342.415 168.554 342.506C168.916 350.625 168.048 356.843 165.974 360.563C164.402 363.382 162.268 365.487 159.721 366.826C160.523 366.032 161.261 365.14 161.945 364.142C164.088 360.995 166.324 354.809 166.42 342.667C165.886 342.698 165.292 342.723 164.642 342.74C164.543 352.049 163.169 358.975 160.583 362.761C160.464 362.936 160.34 363.111 160.213 363.281C162.174 359.916 164.051 353.817 164.147 342.749C163.591 342.757 162.997 342.763 162.367 342.757C162.273 352.057 160.894 358.978 158.31 362.761C156.69 365.131 154.661 366.868 152.329 367.939C151.616 367.818 150.887 367.657 150.155 367.462C150.056 367.439 149.957 367.414 149.861 367.383L149.83 367.374C149.734 367.349 149.635 367.321 149.538 367.292C148.645 367.032 147.777 366.736 146.938 366.402C136.651 362.32 130.749 353.128 130.175 345.571C129.768 340.203 130.203 332.211 131.288 323.519C133.426 306.388 138.081 286.528 143.743 278.635C143.84 278.502 143.93 278.373 144.026 278.248L144.029 278.245C144.148 278.09 144.266 277.937 144.388 277.796C144.597 277.545 144.804 277.31 145.016 277.096L145.021 277.09C145.465 276.635 145.909 276.276 146.341 276.011C146.46 276.081 146.59 276.169 146.731 276.282C147.099 276.562 147.537 276.988 148.043 277.632L148.054 277.647C148.645 277.774 149.259 277.921 149.886 278.079C150.177 278.158 150.477 278.234 150.777 278.322L150.833 278.336C150.904 278.35 150.974 278.373 151.042 278.392C151.41 278.494 151.777 278.601 152.148 278.712C152.357 278.777 152.569 278.841 152.778 278.906C153.027 278.986 153.273 279.065 153.519 279.147C153.787 279.237 154.056 279.327 154.321 279.421C154.604 279.519 154.887 279.621 155.164 279.726L155.147 279.7C151.814 274.451 149.445 273.228 147.907 273.302C147.667 273.313 147.43 273.344 147.187 273.398C146.907 273.324 146.649 273.293 146.415 273.293C145.9 273.296 145.383 273.392 144.866 273.579C143.283 273.731 141.618 274.731 139.893 276.57C139.775 276.692 139.659 276.822 139.54 276.954C138.582 278.034 137.623 279.347 136.668 280.853L136.651 280.878C127.534 295.277 119.034 327.265 118.528 342.237C118.13 354.085 127.257 364.679 136.481 369.018C137.383 369.442 138.279 369.809 139.164 370.117C139.664 370.292 140.159 370.448 140.651 370.586L140.682 370.595C142.593 371.131 144.45 371.397 146.231 371.397C146.613 371.397 146.989 371.386 147.362 371.36C147.746 371.386 148.128 371.397 148.507 371.397C150.183 371.397 151.794 371.163 153.315 370.696C153.555 370.685 153.796 370.668 154.033 370.651C154.237 370.631 154.44 370.614 154.638 370.589C155.028 370.544 155.415 370.485 155.797 370.414C156.914 370.42 158.002 370.338 159.054 370.162C162.367 369.62 165.306 368.196 167.712 365.959C169.227 364.552 170.53 362.823 171.579 360.789C173.117 357.795 174.48 352.534 174.027 343.387" fill="#FFA412"/>
<path d="M156.685 328.061C156.395 328.104 150.928 329.101 150.629 329.143C141.524 330.477 129.273 331.067 127.997 331.124C127.878 331.014 123.531 326.968 121.836 326.968C120.118 326.968 115.165 328.77 114.66 330.158C114.154 331.547 113.952 334.045 115.367 334.598C116.782 335.152 122.645 336.539 124.161 336.68C124.369 336.697 124.618 336.697 124.889 336.672C135.78 339.87 145.154 341.443 152.378 342.186C153.023 342.254 156.748 342.737 160.057 342.703C159.943 336.421 157.826 330.615 156.685 328.061" fill="#D9935C"/>
<path d="M346.034 206.058H335.058V198.377H346.034V206.058ZM346.034 216.129H335.058V208.448H346.034V216.129ZM346.034 226.203H335.058V218.522H346.034V226.203ZM346.034 236.274H335.058V228.593H346.034V236.274ZM346.034 246.348H335.058V238.667H346.034V246.348ZM346.034 254.953H335.058V248.738H346.034V254.953ZM346.034 265.024H335.058V257.343H346.034V265.024ZM346.034 275.098H335.058V267.417H346.034V275.098ZM346.034 285.17H335.058V277.488H346.034V285.17ZM346.034 295.243H335.058V287.562H346.034V295.243ZM346.034 305.315H335.058V297.633H346.034V305.315ZM346.034 315.035H335.058V307.705H346.034V315.035ZM346.034 325.109H335.058V317.428H346.034V325.109ZM346.034 335.181H335.058V327.499H346.034V335.181ZM346.034 345.254H335.058V337.573H346.034V345.254ZM346.034 355.326H335.058V347.644H346.034V355.326ZM346.034 365.4H335.058V357.716H346.034V365.4ZM346.034 374.005H335.058V367.79H346.034V374.005ZM346.034 384.076H335.058V376.394H346.034V384.076ZM346.034 394.15H335.058V386.468H346.034V394.15ZM346.034 404.221H335.058V396.54H346.034V404.221ZM346.034 414.295H335.058V406.611H346.034V414.295ZM346.034 424.366H335.058V416.685H346.034V424.366ZM346.034 433.609H335.058V426.756H346.034V433.609ZM346.034 443.68H335.058V435.999H346.034V443.68ZM346.034 453.754H335.058V446.073H346.034V453.754ZM346.034 463.825H335.058V456.144H346.034V463.825ZM346.034 473.899H335.058V466.218H346.034V473.899ZM346.034 483.97H335.058V476.289H346.034V483.97ZM346.034 492.575H335.058V486.36H346.034V492.575ZM346.034 502.649H335.058V494.968H346.034V502.649ZM346.034 512.721H335.058V505.039H346.034V512.721ZM303.482 505.039H314.459V512.721H303.482V505.039ZM303.482 494.968H314.459V502.649H303.482V494.968ZM303.482 486.36H314.459V492.575H303.482V486.36ZM303.482 476.289H314.459V483.97H303.482V476.289ZM303.482 466.218H314.459V473.899H303.482V466.218ZM303.482 456.144H314.459V463.825H303.482V456.144ZM303.482 446.073H314.459V453.754H303.482V446.073ZM303.482 435.999H314.459V443.68H303.482V435.999ZM303.482 426.756H314.459V433.609H303.482V426.756ZM303.482 416.685H314.459V424.366H303.482V416.685ZM303.482 406.611H314.459V414.295H303.482V406.611ZM303.482 396.54H314.459V404.221H303.482V396.54ZM303.482 386.468H314.459V394.15H303.482V386.468ZM303.482 376.394H314.459V384.076H303.482V376.394ZM303.482 367.79H314.459V374.005H303.482V367.79ZM303.482 357.716H314.459V365.4H303.482V357.716ZM303.482 347.644H314.459V355.326H303.482V347.644ZM303.482 337.573H314.459V345.254H303.482V337.573ZM303.482 327.499H314.459V335.181H303.482V327.499ZM303.482 317.428H314.459V325.109H303.482V317.428ZM303.482 307.705H314.459V315.035H303.482V307.705ZM303.482 297.633H314.459V305.315H303.482V297.633ZM303.482 287.562H314.459V295.243H303.482V287.562ZM303.482 277.488H314.459V285.17H303.482V277.488ZM303.482 267.417H314.459V275.098H303.482V267.417ZM303.482 257.343H314.459V265.024H303.482V257.343ZM303.482 248.738H314.459V254.953H303.482V248.738ZM303.482 238.667H314.459V246.348H303.482V238.667ZM303.482 228.593H314.459V236.274H303.482V228.593ZM303.482 218.522H314.459V226.203H303.482V218.522ZM303.482 208.448H314.459V216.129H303.482V208.448ZM303.482 198.377H314.459V206.058H303.482V198.377ZM318.792 216.129V208.448H330.727V216.129H318.792ZM318.792 226.203V218.522H330.727V226.203H318.792ZM318.792 236.274V228.593H330.727V236.274H318.792ZM318.792 246.348V238.667H330.727V246.348H318.792ZM318.792 254.953V248.738H330.727V254.953H318.792ZM318.792 265.024V257.343H330.727V265.024H318.792ZM318.792 275.098V267.417H330.727V275.098H318.792ZM318.792 285.17V277.488H330.727V285.17H318.792ZM318.792 295.243V287.562H330.727V295.243H318.792ZM318.792 305.315V297.633H330.727V305.315H318.792ZM318.792 315.035V307.705H330.727V315.035H318.792ZM318.792 325.109V317.428H330.727V325.109H318.792ZM318.792 335.181V327.499H330.727V335.181H318.792ZM318.792 345.254V337.573H330.727V345.254H318.792ZM318.792 355.326V347.644H330.727V355.326H318.792ZM318.792 365.4V357.716H330.727V365.4H318.792ZM318.792 374.005V367.79H330.727V374.005H318.792ZM318.792 384.076V376.394H330.727V384.076H318.792ZM318.792 394.15V386.468H330.727V394.15H318.792ZM318.792 404.221V396.54H330.727V404.221H318.792ZM318.792 414.295V406.611H330.727V414.295H318.792ZM318.792 424.366V416.685H330.727V424.366H318.792ZM318.792 433.609V426.756H330.727V433.609H318.792ZM318.792 443.68V435.999H330.727V443.68H318.792ZM318.792 453.754V446.073H330.727V453.754H318.792ZM318.792 463.825V456.144H330.727V463.825H318.792ZM318.792 473.899V466.218H330.727V473.899H318.792ZM318.792 483.97V476.289H330.727V483.97H318.792ZM318.792 492.575V486.36H330.727V492.575H318.792ZM330.727 505.039V512.721H318.792V505.039H330.727ZM318.792 502.649V494.968H330.727V502.649H318.792ZM330.727 198.377V206.058H318.792V198.377H330.727ZM355.603 198.377V195.987H350.368V180.209H346.034V195.987H335.058V180.209H330.727V195.987H318.792V180.209H314.459V195.987H303.482V180.209H299.149V195.987H293.41V198.377H299.149V206.058H293.41V208.448H299.149V216.129H293.41V218.522H299.149V226.203H293.41V228.593H299.149V236.274H293.41V238.667H299.149V246.348H293.41V248.738H299.149V254.953H293.41V257.343H299.149V265.024H293.41V267.417H299.149V275.098H293.41V277.488H299.149V285.17H293.41V287.562H299.149V295.243H293.41V297.633H299.149V305.315H293.41V307.705H299.149V315.035H293.41V317.428H299.149V325.109H293.41V327.499H299.149V335.181H293.41V337.573H299.149V345.254H293.41V347.644H299.149V355.326H293.41V357.716H299.149V365.4H293.41V367.79H299.149V374.005H293.41V376.394H299.149V384.076H293.41V386.468H299.149V394.15H293.41V396.54H299.149V404.221H293.41V406.611H299.149V414.295H293.41V416.685H299.149V424.366H293.41V426.756H299.149V433.609H293.41V435.999H299.149V443.68H293.41V446.073H299.149V453.754H293.41V456.144H299.149V463.825H293.41V466.218H299.149V473.899H293.41V476.289H299.149V483.97H293.41V486.36H299.149V492.575H293.41V494.968H299.149V502.649H293.41V505.039H299.149V512.721H293.41V515.113H355.603V512.721H350.368V505.039H355.603V502.649H350.368V494.968H355.603V492.575H350.368V486.36H355.603V483.97H350.368V476.289H355.603V473.899H350.368V466.218H355.603V463.825H350.368V456.144H355.603V453.754H350.368V446.073H355.603V443.68H350.368V435.999H355.603V433.609H350.368V426.756H355.603V424.366H350.368V416.685H355.603V414.295H350.368V406.611H355.603V404.221H350.368V396.54H355.603V394.15H350.368V386.468H355.603V384.076H350.368V376.394H355.603V374.005H350.368V367.79H355.603V365.4H350.368V357.716H355.603V355.326H350.368V347.644H355.603V345.254H350.368V337.573H355.603V335.181H350.368V327.499H355.603V325.109H350.368V317.428H355.603V315.035H350.368V307.705H355.603V305.315H350.368V297.633H355.603V295.243H350.368V287.562H355.603V285.17H350.368V277.488H355.603V275.098H350.368V267.417H355.603V265.024H350.368V257.343H355.603V254.953H350.368V248.738H355.603V246.348H350.368V238.667H355.603V236.274H350.368V228.593H355.603V226.203H350.368V218.522H355.603V216.129H350.368V208.448H355.603V206.058H350.368V198.377H355.603" fill="#D2E4FF"/>
<path d="M406.757 79.6792H408.292V52.401H406.757V79.6792Z" fill="#D2E4FF"/>
<path d="M491.711 79.6792H493.243V52.401H491.711V79.6792Z" fill="#D2E4FF"/>
<path d="M417.493 79.6792H419.025V52.401H417.493V79.6792Z" fill="#D2E4FF"/>
<path d="M499.379 52.401V79.6792H500.914V52.401H499.379Z" fill="#D2E4FF"/>
<path d="M191.136 454.475C190.647 454.362 190.156 454.669 190.045 455.158L181.767 491.284C179.532 491.352 177.258 493.77 176.486 497.141L175.698 500.581C175.657 500.762 175.607 500.977 175.59 501.161L184.782 503.265C184.87 503.096 184.919 502.881 184.96 502.703L185.749 499.259C186.519 495.9 185.533 492.739 183.543 491.697L191.821 455.565C191.933 455.076 191.625 454.585 191.136 454.475" fill="#2B478B"/>
<path d="M167.08 501.104C167.08 501.104 186.171 496.163 192.267 500.186C198.362 504.209 189.162 508.46 189.162 508.46L167.08 501.104" fill="#E69D43"/>
<path d="M314.512 283.249C310.863 294.413 290.973 313.708 288.226 315.632C288.226 315.632 283.598 307.925 284.522 303.609C285.277 300.086 293.023 287.526 295.671 281.353C295.81 281.031 295.934 280.726 296.042 280.444C296.406 279.497 296.599 278.763 296.553 278.328C296.421 276.986 292.206 273.726 287.301 269.856C280.932 264.824 273.404 258.773 272.183 254.589C270.023 247.191 262.542 217.892 262.542 217.892C262.542 217.892 281.129 221.91 286.374 226.534C291.618 231.159 314.139 269.695 315.063 279.562C315.165 280.636 314.962 281.882 314.512 283.249Z" fill="#FFA412"/>
<path d="M314.513 283.249C310.864 294.413 290.974 313.708 288.227 315.632C288.227 315.632 283.599 307.925 284.523 303.609C285.321 299.902 293.846 286.195 296.043 280.444C299.347 279.87 307.107 279.167 314.513 283.249" fill="#D9935C"/>
<path d="M262.549 215.316L262.537 217.593C262.537 217.593 263.157 224.706 254.389 225.746C245.622 226.788 239.02 223.61 239.257 218.119C240.047 213.867 240.874 210.31 240.932 206.793C240.954 205.485 240.865 204.098 240.621 202.53L257.61 202.191L262.614 203.01L262.549 215.316" fill="#D9935C"/>
<path d="M262.613 203.01L262.548 215.316C260.744 216.155 258.708 216.667 256.425 216.667C248.616 216.667 243.569 210.946 240.932 206.793C240.953 205.485 240.864 204.098 240.62 202.53L257.609 202.191L262.613 203.01Z" fill="#CB7D45"/>
<path d="M247.573 517.031C247.573 517.031 246.749 510.61 244.839 506.793C242.929 502.977 230.777 505.406 230.777 505.406C230.777 505.406 228.346 507.488 227.825 517.204L247.573 517.031Z" fill="#233862"/>
<path d="M288.978 517.009C286.123 515.269 287.749 502.274 287.749 502.274C287.749 502.274 301.055 491.635 302.884 499.779C304.713 507.924 315.525 511.582 321.679 512.579C325.928 513.268 327.242 515.619 327.649 517.009H288.978" fill="#233862"/>
<path d="M261.416 421.055C261.958 424.038 262.302 426.485 262.393 428.239C263.63 452.35 282.701 507.48 286.113 508.766C291.394 510.757 299.705 506.526 304.055 505.141C305.856 504.565 307.071 502.749 306.67 500.907C297.225 457.512 293.754 395.028 292.49 358.035C291.854 339.401 288.654 326.528 288.654 326.528C288.654 326.528 242.135 314.126 241.859 329.816C241.614 343.698 257.268 398.15 261.416 421.055" fill="#2B478B"/>
<path d="M261.416 421.055L292.49 358.035C291.854 339.401 288.654 326.527 288.654 326.527C288.654 326.527 242.135 314.126 241.859 329.816C241.614 343.698 257.268 398.15 261.416 421.055" fill="#233862"/>
<path d="M271.767 329.869L247.176 507.986C247.176 507.986 236.377 510.588 227.978 508.506C227.978 508.506 220.778 413.775 221.378 390.875C221.978 367.973 216.211 329.593 222.694 325.361C229.178 321.129 271.767 329.869 271.767 329.869Z" fill="#2B478B"/>
<path d="M289.993 330.2C289.993 330.2 277.428 337.522 259.226 337.316C252.131 337.234 245.958 336.706 240.719 335.923C226.121 333.759 218.754 329.689 218.813 328.172C218.862 326.801 218.958 322.253 219.131 320.298C221.45 293.562 220.25 272.768 223.373 257.148C223.409 256.959 223.446 256.77 223.486 256.586C227.617 236.723 234.093 225.313 237.307 220.635C238.483 218.926 239.22 218.118 239.257 218.118C239.257 221.824 247.155 225.025 253.593 224.604C259.016 224.251 262.536 220.129 262.536 217.898L262.543 217.892C262.987 217.892 287.008 234.576 287.028 250.08C287.113 319.567 291.324 330.222 289.993 330.2" fill="#FFA412"/>
<path d="M240.753 335.697C240.741 335.774 240.732 335.85 240.719 335.923C226.121 333.759 218.754 329.689 218.813 328.172C218.862 326.801 218.958 322.253 219.131 320.298C221.45 293.562 220.25 272.768 223.373 257.148C231.035 267.383 246.788 294.19 240.753 335.697Z" fill="#E27F2B"/>
<path d="M280.74 302.461L278.778 308.987L276.828 315.459L192.145 290.003C192.024 290.009 191.907 289.997 191.796 289.963C191.679 289.929 191.571 289.873 191.469 289.802C190.402 289.048 190.207 286.282 191.028 283.166C191.071 282.994 191.121 282.819 191.173 282.644C192.163 279.293 193.965 276.816 195.347 276.793C195.461 276.79 195.569 276.804 195.677 276.836C195.788 276.869 195.89 276.92 195.989 276.988L280.74 302.461" fill="#E9F3FE"/>
<path d="M278.778 308.987L276.828 315.459L192.145 290.003C192.024 290.009 191.907 289.997 191.796 289.963C191.679 289.929 191.571 289.873 191.469 289.802C190.402 289.048 190.207 286.282 191.028 283.166C194.489 285.763 211.022 297.246 239.24 302.831C268.409 308.606 277.436 308.967 278.778 308.987" fill="#BED4F4"/>
<path d="M280.904 302.425C279.488 302.007 277.471 304.609 276.399 308.233C275.328 311.858 275.607 315.137 277.024 315.556C278.44 315.974 280.456 313.372 281.528 309.747C282.599 306.12 282.32 302.843 280.904 302.425Z" fill="#AFCDFB"/>
<path d="M196.603 274.596L186.62 272.977C186.512 272.926 186.407 272.889 186.29 272.87C186.179 272.856 186.071 272.853 185.96 272.87C184.59 273.073 183.131 275.765 182.588 279.217C182.557 279.401 182.532 279.576 182.511 279.754C182.316 281.285 182.344 282.701 182.548 283.831C182.77 285.043 183.199 285.924 183.785 286.255L183.819 286.277C183.93 286.334 184.044 286.373 184.164 286.393C184.278 286.41 184.396 286.407 184.516 286.387L271.806 300.541L272.889 293.868L273.978 287.144L196.603 274.596" fill="#E9F3FE"/>
<path d="M232.886 292.941C214.215 291.741 204.319 281.876 196.603 274.596L186.62 272.977C186.512 272.926 186.407 272.889 186.29 272.87C186.179 272.856 186.071 272.853 185.96 272.87C184.59 273.073 183.131 275.765 182.588 279.217C182.557 279.401 182.532 279.576 182.511 279.754C182.316 281.285 182.344 282.701 182.548 283.831C183.017 285.156 183.498 286.057 183.785 286.255L183.819 286.277C183.93 286.334 184.044 286.373 184.164 286.393C184.278 286.41 184.396 286.407 184.516 286.387L271.806 300.541L272.889 293.868C271.556 294.026 262.561 294.848 232.886 292.941Z" fill="#BED4F4"/>
<path d="M274.136 287.085C272.677 286.856 271.018 289.698 270.431 293.433C269.844 297.168 270.551 300.38 272.01 300.608C273.468 300.84 275.127 297.998 275.714 294.263C276.301 290.529 275.594 287.314 274.136 287.085Z" fill="#AFCDFB"/>
<path d="M243.082 312.756C222.835 309.538 209.452 301.058 203.958 296.958C202.082 295.557 201.126 294.667 201.126 294.667C190.751 272.87 209.52 234.653 212.951 228.175C216.653 221.189 239.257 218.118 239.257 218.118C239.257 218.118 235.647 228.732 234.237 242.563C232.828 256.397 217.785 283.362 218.402 285.625C218.556 286.195 220.373 287.393 223.023 288.902C230.881 293.374 246.065 300.58 246.988 302.272C248.222 304.532 243.082 312.756 243.082 312.756" fill="#D9935C"/>
<path d="M246.989 302.272C246.989 302.272 258.301 297.749 261.077 299.6C263.854 301.45 268.481 304.224 268.481 306.075C268.481 307.925 262.619 312.857 257.683 314.4C252.748 315.939 243.081 312.756 243.081 312.756L246.989 302.272" fill="#D9935C"/>
<path d="M234.237 242.563C232.828 256.397 217.785 283.361 218.402 285.624C218.556 286.195 220.373 287.393 223.023 288.901C222.857 288.915 222.687 288.918 222.514 288.912C210.68 288.39 205.325 294.932 203.958 296.958C202.082 295.557 201.126 294.667 201.126 294.667C190.751 272.869 209.52 234.653 212.951 228.175C216.653 221.189 239.257 218.118 239.257 218.118C239.257 218.118 235.647 228.731 234.237 242.563" fill="#FFA412"/>
<path d="M263.604 208.99C263.604 208.99 241.846 213.383 239.317 199.798C236.788 186.215 232.276 177.633 246.062 174.254C259.848 170.876 263.519 175.557 265.467 179.884C267.414 184.212 269.199 207.496 263.604 208.99" fill="#D9935C"/>
<path d="M239.753 203.717C239.753 203.717 235.546 194.745 232.038 190.761C228.53 186.775 230.444 166.856 245.592 167.495C260.741 168.13 266.163 178.967 266.322 181.038C266.482 183.111 254.203 181.518 250.854 184.227C247.506 186.936 250.695 191.397 246.868 192.99C243.041 194.584 240.011 194.584 240.649 198.089C241.287 201.595 239.753 203.717 239.753 203.717" fill="#233862"/>
<path d="M244.428 158.245C240.093 159.333 236.842 161.07 234.414 163.163C234.173 163.37 233.938 163.584 233.713 163.799L233.71 163.802C224.727 172.364 228.312 185.989 228.312 185.989C228.312 185.989 229.508 189.433 230.33 190.769C231.153 192.106 243.082 190.563 243.699 187.995C244.315 185.424 246.681 182.755 246.681 182.755C246.681 182.755 259.255 181.89 260.1 181.828C262.941 181.622 271.048 178.805 271.048 178.805C270.956 178.009 266.393 152.731 244.428 158.245" fill="#FFA412"/>
<path d="M278.496 176.133C276.987 175.766 274.415 175.356 270.177 175.201C270.177 175.201 266.618 178.147 259.543 180.393C256.218 176.204 246.746 166.116 234.413 163.163C234.375 163.155 234.342 163.147 234.305 163.135C234.042 163.466 233.894 163.576 233.712 163.799L233.709 163.802C233.654 163.867 233.595 163.943 233.53 164.039C243.571 165.788 253.114 177.057 256.39 181.277C253.579 181.967 250.346 182.512 246.68 182.755C246.68 182.755 268.656 183.164 278.7 177.879C279.465 177.475 279.336 176.339 278.496 176.133" fill="#E27F2B"/>
<path d="M300.872 275.862C300.465 278.167 299.222 280.594 295.671 281.354C295.81 281.031 295.934 280.726 296.041 280.444C296.406 279.497 296.598 278.763 296.553 278.328C296.42 276.986 292.205 273.726 287.301 269.856C286.897 267.661 285.91 261.146 287.298 255.977C288.997 249.657 301.336 273.24 300.872 275.862" fill="#E27F2B"/>
<path d="M220.663 287.345C220.663 287.345 205.547 286.113 200.61 294.899C200.61 294.899 201.032 297.862 203.958 296.958C203.958 296.958 216.745 288.223 223.023 288.901C223.023 288.901 222.052 287.37 220.663 287.345" fill="#E27F2B"/>
<path d="M295.672 281.353C295.672 281.353 303.516 281.681 313.388 285.978C313.388 285.978 315.578 283.825 314.705 282.593C313.831 281.359 299.932 276.926 295.672 281.353" fill="#E27F2B"/>
<path d="M404.535 230.031C411.331 195.219 417.561 161.889 417.561 161.889C417.561 161.889 398.214 164.819 389.884 171.757C381.556 178.692 380.714 222.864 377.938 235.351C377.389 237.8 376.9 241.761 376.476 246.583C374.899 264.539 376.863 291.433 378.35 298.972C378.254 299.696 377.638 303.255 374.359 310.083C374.359 310.083 372.66 315.324 383.767 323.186C390.845 328.197 397.154 267.872 404.535 230.031" fill="#D9935C"/>
<path d="M417.562 161.89C417.562 161.89 413.969 181.1 409.268 205.581C407.778 213.35 406.175 221.647 404.536 230.031C397.878 243.074 392.165 251.939 390.401 250.273C386.8 246.874 380.479 246.456 376.477 246.583C376.901 241.761 377.39 237.8 377.938 235.351C378.156 234.365 378.362 233.178 378.563 231.834C380.892 216.121 382.212 178.145 389.884 171.757C398.215 164.819 417.562 161.89 417.562 161.89" fill="#739AF0"/>
<path d="M409.268 205.581C407.778 213.35 406.175 221.647 404.536 230.031C397.878 243.074 392.165 251.939 390.401 250.273C386.8 246.874 380.479 246.456 376.477 246.583C376.901 241.761 377.39 237.8 377.938 235.351C378.156 234.365 378.362 233.178 378.563 231.834L398.523 183.679L409.268 205.581" fill="#4A75CB"/>
<path d="M445.189 161.401C445.336 154.677 445.225 146.651 444.315 139.871L417.469 144.256C417.469 144.256 417.469 152.443 417.587 161.528L417.562 161.531C417.562 161.531 416.83 169.96 427.216 171.192C437.601 172.427 445.468 167.904 445.189 161.401Z" fill="#D9935C"/>
<path d="M417.395 145.911C417.395 145.911 423.718 158.861 430.969 158.861C438.217 158.861 445.004 146.682 445.004 146.682L417.395 145.911Z" fill="#CB7D45"/>
<path d="M435.288 517.057C435.288 517.057 436.263 509.452 438.525 504.929C440.789 500.409 455.186 503.285 455.186 503.285C455.186 503.285 458.064 505.751 458.683 517.263L435.288 517.057Z" fill="#233862"/>
<path d="M386.237 516.952C389.618 514.89 387.696 499.496 387.696 499.496C387.696 499.496 371.931 486.894 369.765 496.542C367.597 506.192 354.789 510.522 347.498 511.706C342.467 512.52 340.909 515.305 340.426 516.952H386.237" fill="#233862"/>
<path d="M447.743 132.137C447.743 132.137 465.665 103.898 431.254 102.031C431.254 102.031 418.347 103.548 415.424 100.63C415.424 100.63 405.414 115.834 414.762 132.137C424.111 148.437 447.743 132.137 447.743 132.137" fill="#233862"/>
<path d="M418.265 146.871C420.874 148.922 428.523 150.959 430.734 151.196C430.734 151.196 442.075 148.671 444.136 147.428C447.33 145.493 447.124 141.577 447.288 136.133C447.486 129.692 448.133 124.633 447.415 120.918C446.558 116.474 443.74 113.946 435.848 113.259C421.36 112.002 415.325 115.63 415.073 120.483C415.005 121.788 414.946 123.031 414.904 124.206C414.324 139.345 415.52 144.713 418.265 146.871Z" fill="#D9935C"/>
<path d="M418.887 402.565C418.245 406.097 417.838 408.995 417.731 411.074C416.264 439.638 393.669 504.949 389.629 506.472C383.377 508.83 373.528 503.816 368.377 502.178C366.24 501.497 364.801 499.344 365.276 497.16C376.465 445.754 380.578 371.73 382.073 327.906C382.828 305.832 386.622 290.582 386.622 290.582C386.622 290.582 441.728 275.889 442.056 294.475C442.347 310.925 423.8 375.431 418.887 402.565" fill="#2B478B"/>
<path d="M418.888 402.565L382.074 327.906C382.829 305.832 386.623 290.582 386.623 290.582C386.623 290.582 441.729 275.89 442.057 294.475C442.348 310.925 423.801 375.431 418.888 402.565" fill="#233862"/>
<path d="M406.628 294.543L435.758 505.546C435.758 505.546 448.553 508.63 458.503 506.164C458.503 506.164 467.031 393.941 466.322 366.81C465.61 339.681 472.442 294.213 464.762 289.199C457.081 284.187 406.628 294.543 406.628 294.543" fill="#2B478B"/>
<path d="M468.947 289.198C469.043 291.644 467.107 293.681 464.661 293.718L418.754 294.418L385.035 294.933C383.455 294.961 388.447 282.336 388.549 200.018C388.575 181.65 417.029 161.884 417.555 161.884L417.561 161.889C417.561 164.536 421.73 169.421 428.159 169.839C435.783 170.339 445.139 166.545 445.139 162.155C445.139 162.107 446.024 163.064 447.452 165.138C451.257 170.681 458.926 184.195 463.822 207.725C467.689 226.308 466.202 251.151 468.984 283.206C469.187 285.52 468.887 287.576 468.947 289.198Z" fill="#FFA412"/>
<path d="M467.254 293.975C467.254 293.975 461.15 296.707 449.736 299.071C441.25 300.831 429.829 302.391 415.8 302.476C393.485 302.62 385.035 294.933 385.035 294.933C383.455 294.961 388.447 282.336 388.549 200.018C388.575 181.65 417.029 161.884 417.555 161.884L417.561 161.889C417.561 161.889 416.829 186.351 424.232 193.544C424.232 193.544 434.618 185.529 448.091 162.714C451.895 168.257 458.926 184.196 463.822 207.725C464.817 212.513 465.458 217.714 465.908 223.347C467.208 239.583 466.917 259.408 468.984 283.206C469.187 285.52 468.887 287.576 468.947 289.198C469.043 291.644 469.699 293.936 467.254 293.975Z" fill="#739AF0"/>
<path d="M467.254 293.975C467.254 293.975 461.151 296.707 449.736 299.071C446.146 293.596 441.621 283.72 440.996 268.155C439.933 241.831 464.953 207.931 464.953 207.931L465.909 223.347C467.209 239.582 466.918 259.408 468.984 283.206C469.188 285.52 468.888 287.576 468.947 289.198C469.044 291.644 469.699 293.935 467.254 293.975" fill="#4A75CB"/>
<path d="M445.584 204.841L402.933 229.449L436.71 287.916L479.359 263.307L445.584 204.841Z" fill="#2B478B"/>
<path d="M472.153 170.729C466.929 166.782 454.661 163.986 448.623 162.793C446.494 162.375 445.14 162.155 445.14 162.155C445.77 165.056 447.187 169.607 449.038 175.071C456.792 197.967 472.164 236.904 469.069 237.732C466.547 238.407 463.325 239.003 459.777 239.52C446.293 241.495 428.148 242.368 426.251 242.456C426.101 242.317 419.639 236.294 417.123 236.294C414.576 236.294 407.238 238.967 406.489 241.023C405.743 243.077 405.443 246.778 407.538 247.6C409.635 248.422 418.319 250.479 420.566 250.682C420.875 250.71 421.245 250.71 421.646 250.673C437.782 255.414 451.667 257.739 462.369 258.841C477.301 260.372 486.036 259.521 486.036 259.521C496.851 236.257 479.217 176.065 472.153 170.729Z" fill="#D9935C"/>
<path d="M486.035 259.521C486.035 259.521 477.3 260.372 462.369 258.841C463.195 254.787 463.958 246.868 459.777 239.52C463.325 239.003 466.547 238.407 469.069 237.732C472.164 236.904 456.792 197.967 449.038 175.071C448.416 167.669 448.091 162.714 448.091 162.714L448.622 162.793C454.66 163.985 466.929 166.782 472.153 170.729C479.217 176.065 496.851 236.257 486.035 259.521" fill="#739AF0"/>
<path d="M424.232 193.544C424.232 193.544 445.004 184.399 445.312 183.679C445.623 182.959 444.286 177.41 442.844 175.766C442.844 175.766 452.82 176.69 453.436 175.458C454.055 174.224 454.516 164.079 454.516 164.079C454.516 164.079 450.364 159.782 445.224 159.373C445.224 159.373 440.71 170.582 439.039 173.916C434.618 182.755 424.232 193.544 424.232 193.544" fill="#4A75CB"/>
<path d="M419.297 175.458C419.297 175.458 420.634 186.145 424.232 193.544C424.232 193.544 413.383 185.99 412.459 183.524C411.532 181.057 415.079 176.28 415.079 176.28C415.079 176.28 408.6 176.125 408.447 173.967C408.292 171.808 410.452 163.331 410.452 163.331C410.452 163.331 416.026 159.265 417.567 159.418L419.297 175.458" fill="#4A75CB"/>
<path d="M454.463 116.404L408.332 116.898C408.332 116.898 407.653 102.997 415.647 94.1317C416.015 93.7221 416.399 93.3266 416.809 92.9396C418.534 91.3011 420.611 89.8886 423.11 88.849C432.331 85.0042 439.978 88.5524 444.758 92.1853C445.227 92.5413 445.671 92.8972 446.084 93.2532C448.682 95.4595 450.132 97.4286 450.132 97.4286C450.132 97.4286 454.612 103.533 454.463 116.404" fill="#FFA412"/>
<path d="M441.505 116.543C441.378 114.672 440.563 98.7281 446.166 93.3239C445.756 92.9679 445.872 93.0414 445.403 92.6855C439.427 98.9005 438.952 114.591 438.978 116.571L424.23 116.729C423.792 105.437 417.559 94.194 416.81 92.9397C416.4 93.3267 416.323 93.403 415.959 93.8126C417.041 95.7139 421.112 106.599 421.502 116.757L408.332 116.899C408.332 116.899 420.617 120.071 429.872 119.958C439.125 119.842 454.463 116.404 454.463 116.404L441.505 116.543" fill="#E27F2B"/>
</svg>
