<svg width="1514" height="653" viewBox="0 0 1514 653" fill="none" xmlns="http://www.w3.org/2000/svg">
<path opacity="0.5" d="M0 526.818V652.958C102.62 650.82 185.15 567.037 185.15 463.995V213.856C185.15 154.262 223.518 126.056 248.154 126.056C272.79 126.056 311.158 154.262 311.158 213.856V439.144C311.158 546.15 385.693 653 500.33 653C614.966 653 689.501 546.15 689.501 439.144V213.856C689.501 154.262 727.869 126.056 752.505 126.056C777.142 126.056 815.51 154.262 815.51 213.856V439.144C815.51 546.15 890.044 653 1004.68 653C1119.32 653 1193.85 546.15 1193.85 439.144V213.856C1193.85 154.262 1232.22 126.056 1256.86 126.056C1281.49 126.056 1319.86 154.262 1319.86 213.856V439.144C1319.86 546.15 1394.4 653 1509.03 653C1510.7 653 1512.35 652.977 1514 652.933V526.585C1512.3 526.825 1510.63 526.944 1509.03 526.944C1484.4 526.944 1446.03 498.738 1446.03 439.144V213.856C1446.03 106.85 1371.49 0 1256.86 0C1142.22 0 1067.69 106.85 1067.69 213.856V439.144C1067.69 498.738 1029.32 526.944 1004.68 526.944C980.045 526.944 941.676 498.738 941.676 439.144V213.856C941.676 106.85 867.142 0 752.505 0C637.869 0 563.334 106.85 563.334 213.856V439.144C563.334 498.738 524.966 526.944 500.33 526.944C475.693 526.944 437.325 498.738 437.325 439.144V213.856C437.325 106.85 362.791 0 248.154 0C133.518 0 58.9829 106.85 58.9829 213.856V463.995C58.9829 497.411 32.9225 524.746 0 526.818Z" fill="#A8B7E6"/>
</svg>
